<?xml version="1.0" standalone="no"?>
<!DOCTYPE svg PUBLIC "-//W3C//DTD SVG 20010904//EN"
 "http://www.w3.org/TR/2001/REC-SVG-20010904/DTD/svg10.dtd">
<svg version="1.0" xmlns="http://www.w3.org/2000/svg"
 width="1026.000000pt" height="709.000000pt" viewBox="0 0 1026.000000 709.000000"
 preserveAspectRatio="xMidYMid meet">

<g transform="translate(0.000000,709.000000) scale(0.100000,-0.100000)"
fill="#000000" stroke="none">
<path d="M3320 3400 l0 -2400 1800 0 1800 0 0 2400 0 2400 -1800 0 -1800 0 0
-2400z m408 2091 c3 -24 -1 -37 -13 -44 -15 -8 -15 -10 1 -28 16 -18 16 -19
-2 -19 -11 0 -25 9 -32 20 -7 11 -23 20 -37 20 -18 0 -25 -5 -25 -20 0 -11 -7
-20 -15 -20 -12 0 -15 14 -15 65 l0 66 68 -3 67 -3 3 -34z m422 27 c0 -9 3 -9
12 0 7 7 39 12 75 12 l63 0 0 -65 0 -66 -67 3 c-66 3 -68 4 -71 31 -3 23 -6
26 -18 17 -10 -9 -11 -17 -3 -31 14 -26 -12 -26 -36 1 -10 11 -29 20 -42 20
-16 0 -23 -6 -23 -20 0 -11 -4 -20 -10 -20 -5 0 -10 25 -10 55 l0 55 -35 0
-35 0 0 -55 c0 -30 -4 -55 -10 -55 -5 0 -10 25 -10 55 l0 55 -80 0 c-64 0 -80
-3 -80 -15 0 -11 11 -15 40 -15 29 0 40 -4 40 -15 0 -11 -11 -15 -40 -15 -29
0 -40 -4 -40 -15 0 -11 12 -15 50 -15 28 0 50 -4 50 -10 0 -6 -28 -10 -65 -10
l-65 0 0 65 0 65 205 0 c153 0 205 -3 205 -12z m300 2 c0 -5 -25 -10 -55 -10
l-55 0 0 -45 0 -45 55 0 c32 0 55 -4 55 -10 0 -7 -25 -10 -67 -8 l-68 3 -3 49
c-5 73 -2 76 73 76 37 0 65 -4 65 -10z m148 -57 c2 -39 -1 -63 -8 -63 -5 0
-10 9 -10 20 0 17 -7 20 -45 20 -38 0 -45 -3 -45 -20 0 -11 -7 -20 -15 -20
-12 0 -15 13 -15 58 0 32 3 62 7 66 4 4 34 6 68 4 l60 -3 3 -62z m42 12 l0
-55 54 0 55 0 3 53 3 52 68 3 c42 2 67 -1 67 -8 0 -6 -23 -10 -55 -10 l-55 0
0 -45 0 -45 55 0 c30 0 55 -4 55 -10 0 -6 -53 -10 -140 -10 l-140 0 0 65 c0
51 3 65 15 65 12 0 15 -13 15 -55z m280 0 l0 -55 45 0 45 0 0 55 c0 43 3 55
15 55 13 0 15 -11 13 -62 l-3 -63 -67 -3 -68 -3 0 66 c0 37 4 65 10 65 6 0 10
-25 10 -55z m150 0 l0 -55 59 0 60 0 3 53 3 52 205 2 c152 2 206 -1 212 -10 6
-9 8 -9 8 1 0 8 21 12 70 12 l70 0 0 -39 c0 -27 -5 -41 -16 -45 -15 -6 -15 -8
1 -26 15 -17 15 -20 3 -20 -8 0 -23 9 -33 20 -10 11 -29 20 -42 20 -16 0 -23
-6 -23 -20 0 -21 -29 -29 -31 -7 0 10 -2 10 -6 0 -3 -9 -27 -13 -69 -13 -44 0
-64 4 -65 13 -1 6 -2 30 -3 52 -1 38 -3 40 -34 43 l-34 3 4 -55 c2 -40 -1 -56
-9 -56 -9 0 -13 18 -13 55 0 54 0 55 -30 55 -30 0 -30 -1 -30 -55 0 -42 -3
-55 -15 -55 -8 0 -15 9 -15 20 0 17 -7 20 -45 20 -38 0 -45 -3 -45 -20 0 -18
-7 -20 -80 -20 l-80 0 0 65 c0 37 4 65 10 65 6 0 10 -25 10 -55z m1550 -710
l0 -335 -1500 0 -1500 0 0 335 0 335 1500 0 1500 0 0 -335z m170 -2085 l0
-1530 -1670 0 -1670 0 0 1530 0 1530 1670 0 1670 0 0 -1530z"/>
<path d="M3620 5490 c0 -17 7 -20 45 -20 38 0 45 3 45 20 0 17 -7 20 -45 20
-38 0 -45 -3 -45 -20z"/>
<path d="M4040 5490 c0 -17 7 -20 45 -20 38 0 45 3 45 20 0 17 -7 20 -45 20
-38 0 -45 -3 -45 -20z"/>
<path d="M4190 5465 l0 -45 45 0 45 0 0 45 0 45 -45 0 -45 0 0 -45z"/>
<path d="M4490 5490 c0 -17 7 -20 45 -20 38 0 45 3 45 20 0 17 -7 20 -45 20
-38 0 -45 -3 -45 -20z"/>
<path d="M5210 5490 c0 -17 7 -20 45 -20 38 0 45 3 45 20 0 17 -7 20 -45 20
-38 0 -45 -3 -45 -20z"/>
<path d="M5500 5465 l0 -45 45 0 45 0 0 45 0 45 -45 0 -45 0 0 -45z"/>
<path d="M5650 5490 c0 -17 7 -20 45 -20 38 0 45 3 45 20 0 17 -7 20 -45 20
-38 0 -45 -3 -45 -20z"/>
<path d="M3770 5021 c-6 -12 -10 -115 -10 -266 0 -151 4 -254 10 -266 11 -19
36 -19 1338 -19 730 0 1337 3 1350 6 22 6 23 7 22 203 -1 134 -5 200 -13 210
-9 12 -9 13 1 7 15 -9 17 96 2 125 -11 19 -36 19 -1350 19 -1314 0 -1339 0
-1350 -19z m2604 -389 c3 -5 -1 -9 -9 -9 -8 0 -12 4 -9 9 3 4 7 8 9 8 2 0 6
-4 9 -8z"/>
<path d="M3562 4134 c-22 -15 -22 -19 -22 -234 0 -215 0 -219 22 -234 19 -14
70 -16 353 -16 283 0 334 2 353 16 22 15 22 19 22 234 0 215 0 219 -22 234
-19 14 -70 16 -353 16 -283 0 -334 -2 -353 -16z m668 -234 l0 -190 -315 0
-315 0 0 190 0 190 315 0 315 0 0 -190z"/>
<path d="M4362 4134 c-22 -15 -22 -19 -22 -234 0 -215 0 -219 22 -234 19 -14
70 -16 353 -16 283 0 334 2 353 16 22 15 22 19 22 234 0 215 0 219 -22 234
-19 14 -70 16 -353 16 -283 0 -334 -2 -353 -16z m668 -234 l0 -190 -315 0
-315 0 0 190 0 190 315 0 315 0 0 -190z"/>
<path d="M5162 4134 c-22 -15 -22 -19 -22 -234 0 -215 0 -219 22 -234 19 -14
70 -16 358 -16 288 0 339 2 358 16 22 15 22 19 22 234 0 215 0 219 -22 234
-19 14 -70 16 -358 16 -288 0 -339 -2 -358 -16z m343 -194 c0 -18 -6 -26 -21
-28 -23 -3 -37 18 -27 44 10 25 48 13 48 -16z m25 -30 c-17 -33 -35 -60 -40
-60 -6 0 3 27 20 60 17 33 35 60 40 60 6 0 -3 -27 -20 -60z m54 -15 c8 -23 -4
-45 -25 -45 -22 0 -34 22 -25 45 3 8 14 15 25 15 10 0 21 -7 25 -15z"/>
<path d="M5482 3940 c0 -14 2 -19 5 -12 2 6 2 18 0 25 -3 6 -5 1 -5 -13z"/>
<path d="M5972 4134 c-22 -15 -22 -19 -22 -234 0 -215 0 -219 22 -234 19 -14
70 -16 353 -16 283 0 334 2 353 16 22 15 22 19 22 234 0 215 0 219 -22 234
-19 14 -70 16 -353 16 -283 0 -334 -2 -353 -16z m368 -194 c0 -5 -7 -10 -15
-10 -8 0 -15 5 -15 10 0 6 7 10 15 10 8 0 15 -4 15 -10z m30 -30 c0 -5 -20
-10 -45 -10 -25 0 -45 5 -45 10 0 6 20 10 45 10 25 0 45 -4 45 -10z m-30 -30
c0 -5 -7 -10 -15 -10 -8 0 -15 5 -15 10 0 6 7 10 15 10 8 0 15 -4 15 -10z"/>
<path d="M3557 3522 c-15 -16 -17 -48 -17 -235 0 -212 0 -216 22 -231 19 -14
70 -16 353 -16 283 0 334 2 353 16 22 15 22 19 22 234 0 215 0 219 -22 234
-19 14 -71 16 -359 16 -313 0 -337 -1 -352 -18z m403 -167 c0 -2 -9 -19 -20
-37 -11 -18 -20 -43 -20 -55 0 -14 -6 -23 -15 -23 -19 0 -19 21 -1 65 15 34
15 35 -10 35 -13 0 -24 5 -24 10 0 6 20 10 45 10 25 0 45 -2 45 -5z"/>
<path d="M4357 3522 c-15 -16 -17 -48 -17 -235 0 -212 0 -216 22 -231 19 -14
70 -16 353 -16 283 0 334 2 353 16 22 15 22 19 22 234 0 215 0 219 -22 234
-19 14 -71 16 -359 16 -313 0 -337 -1 -352 -18z m390 -174 c5 -7 10 -32 11
-55 1 -45 -18 -61 -57 -48 -16 5 -20 15 -19 48 2 48 13 67 38 67 10 0 22 -6
27 -12z"/>
<path d="M4710 3325 c0 -8 5 -15 10 -15 6 0 10 7 10 15 0 8 -4 15 -10 15 -5 0
-10 -7 -10 -15z"/>
<path d="M4710 3275 c0 -8 5 -15 10 -15 6 0 10 7 10 15 0 8 -4 15 -10 15 -5 0
-10 -7 -10 -15z"/>
<path d="M5157 3522 c-15 -16 -17 -48 -17 -235 0 -212 0 -216 22 -231 19 -14
71 -16 364 -16 318 0 342 1 357 18 15 16 17 48 17 234 0 195 -2 216 -18 231
-17 15 -57 17 -364 17 -321 0 -346 -1 -361 -18z m391 -174 c7 -7 12 -28 12
-48 0 -56 -41 -81 -71 -43 -13 15 -11 16 14 9 33 -8 36 5 5 19 -13 6 -24 18
-26 28 -7 37 39 62 66 35z"/>
<path d="M5510 3320 c0 -11 5 -20 10 -20 6 0 10 9 10 20 0 11 -4 20 -10 20 -5
0 -10 -9 -10 -20z"/>
<path d="M5972 3524 c-22 -15 -22 -19 -22 -234 0 -215 0 -219 22 -234 19 -14
71 -16 359 -16 313 0 337 1 352 18 15 16 17 48 17 234 0 195 -2 216 -18 231
-17 15 -56 17 -353 17 -287 0 -338 -2 -357 -16z m343 -181 c6 -17 7 -17 16 0
10 17 39 24 39 10 0 -5 -7 -17 -15 -27 -13 -17 -13 -23 5 -53 19 -32 19 -33 1
-33 -10 0 -22 7 -25 16 -6 16 -8 16 -24 0 -32 -28 -46 -19 -24 17 18 28 19 34
6 51 -18 25 -18 36 0 36 8 0 17 -8 21 -17z"/>
<path d="M3562 2914 c-22 -15 -22 -19 -22 -234 0 -215 0 -219 22 -234 19 -14
70 -16 353 -16 283 0 334 2 353 16 22 15 22 19 22 234 0 215 0 219 -22 234
-19 14 -70 16 -353 16 -283 0 -334 -2 -353 -16z m390 -211 c3 -27 3 -54 0 -60
-5 -15 -32 -17 -32 -3 0 6 -11 10 -25 10 -31 0 -31 10 0 60 34 54 52 52 57 -7z"/>
<path d="M3905 2680 c-3 -5 -1 -10 4 -10 6 0 11 5 11 10 0 6 -2 10 -4 10 -3 0
-8 -4 -11 -10z"/>
<path d="M4362 2914 c-22 -15 -22 -19 -22 -234 0 -215 0 -219 22 -234 19 -14
70 -16 353 -16 283 0 334 2 353 16 22 15 22 19 22 234 0 215 0 219 -22 234
-19 14 -70 16 -353 16 -283 0 -334 -2 -353 -16z m398 -174 c0 -5 -9 -10 -20
-10 -26 0 -26 -16 1 -23 15 -4 20 -12 17 -33 -4 -34 -31 -53 -55 -38 -23 14
-28 34 -9 34 9 0 16 -4 16 -10 0 -5 5 -10 10 -10 6 0 10 9 10 20 0 17 -4 19
-27 14 -22 -6 -25 -4 -20 10 4 10 7 26 7 37 0 15 7 19 35 19 19 0 35 -4 35
-10z"/>
<path d="M5162 2914 c-22 -15 -22 -19 -22 -234 0 -215 0 -219 22 -234 19 -14
70 -16 358 -16 288 0 339 2 358 16 22 15 22 19 22 234 0 215 0 219 -22 234
-19 14 -70 16 -358 16 -288 0 -339 -2 -358 -16z m396 -183 c3 -10 -1 -12 -17
-8 -11 3 -23 1 -26 -3 -3 -5 5 -10 17 -12 19 -2 23 -9 23 -38 0 -30 -4 -36
-24 -38 -43 -6 -62 38 -41 93 8 21 16 26 37 23 14 -2 29 -9 31 -17z"/>
<path d="M5515 2680 c-4 -6 -3 -16 3 -22 13 -13 23 4 13 21 -7 10 -10 10 -16
1z"/>
<path d="M5972 2914 c-22 -15 -22 -19 -22 -234 0 -215 0 -219 22 -234 19 -14
70 -16 353 -16 283 0 334 2 353 16 22 15 22 19 22 234 0 215 0 219 -22 234
-19 14 -70 16 -353 16 -283 0 -334 -2 -353 -16z m378 -244 c0 -5 -11 -10 -25
-10 -14 0 -25 5 -25 10 0 6 11 10 25 10 14 0 25 -4 25 -10z"/>
<path d="M3562 2304 c-22 -15 -22 -19 -22 -234 0 -215 0 -219 22 -234 19 -14
70 -16 353 -16 283 0 334 2 353 16 22 15 22 19 22 234 0 215 0 219 -22 234
-19 14 -70 16 -353 16 -283 0 -334 -2 -353 -16z m378 -224 c0 -47 -3 -60 -15
-60 -11 0 -15 11 -15 40 0 31 -3 38 -15 34 -20 -8 -19 5 2 28 31 34 43 23 43
-42z"/>
<path d="M4362 2304 c-22 -15 -22 -19 -22 -234 0 -215 0 -219 22 -234 19 -14
70 -16 353 -16 283 0 334 2 353 16 22 15 22 19 22 234 0 215 0 219 -22 234
-19 14 -70 16 -353 16 -283 0 -334 -2 -353 -16z m396 -192 c2 -15 -5 -33 -19
-48 l-22 -24 21 0 c12 0 22 -4 22 -10 0 -5 -18 -10 -40 -10 -47 0 -49 8 -15
48 26 31 32 52 15 52 -5 0 -10 -4 -10 -10 0 -5 -7 -10 -15 -10 -18 0 -19 12
-3 28 21 21 63 10 66 -16z"/>
<path d="M5162 2304 c-22 -15 -22 -19 -22 -234 0 -215 0 -219 22 -234 19 -14
70 -16 358 -16 288 0 339 2 358 16 22 15 22 19 22 234 0 215 0 219 -22 234
-19 14 -70 16 -358 16 -288 0 -339 -2 -358 -16z m393 -224 c0 -52 -2 -55 -26
-58 -14 -2 -31 4 -39 13 -17 21 -4 32 20 17 17 -10 20 -10 20 7 0 11 -6 22
-12 25 -10 5 -10 7 0 12 20 9 14 23 -8 17 -11 -3 -20 -1 -20 4 0 17 14 24 40
21 23 -3 25 -7 25 -58z"/>
<path d="M5972 2304 c-22 -15 -22 -19 -22 -234 0 -215 0 -219 22 -234 19 -14
70 -16 353 -16 283 0 334 2 353 16 22 15 22 19 22 234 0 215 0 219 -22 234
-19 14 -70 16 -353 16 -283 0 -334 -2 -353 -16z m368 -199 c0 -8 7 -15 15 -15
8 0 15 -4 15 -10 0 -5 -7 -10 -15 -10 -8 0 -15 -7 -15 -15 0 -8 -7 -15 -15
-15 -8 0 -15 7 -15 15 0 8 -7 15 -15 15 -8 0 -15 5 -15 10 0 6 7 10 15 10 8 0
15 7 15 15 0 8 7 15 15 15 8 0 15 -7 15 -15z"/>
<path d="M3562 1694 c-22 -15 -22 -19 -22 -234 0 -215 0 -219 22 -234 19 -14
70 -16 353 -16 283 0 334 2 353 16 22 15 22 19 22 234 0 215 0 219 -22 234
-19 14 -70 16 -353 16 -283 0 -334 -2 -353 -16z m391 -199 c12 -44 -6 -85 -38
-85 -30 0 -49 37 -39 78 10 40 13 43 42 40 20 -2 29 -11 35 -33z"/>
<path d="M3905 1490 c-8 -25 3 -62 16 -55 5 4 9 19 9 35 0 35 -16 48 -25 20z"/>
<path d="M4362 1694 c-22 -15 -22 -19 -22 -234 0 -215 0 -219 22 -234 19 -14
70 -16 353 -16 283 0 334 2 353 16 22 15 22 19 22 234 0 215 0 219 -22 234
-19 14 -70 16 -353 16 -283 0 -334 -2 -353 -16z m368 -274 c0 -5 -7 -10 -15
-10 -8 0 -15 5 -15 10 0 6 7 10 15 10 8 0 15 -4 15 -10z"/>
<path d="M5145 1697 c-3 -7 -4 -118 -3 -247 l3 -235 775 0 775 0 0 245 0 245
-773 3 c-619 2 -774 0 -777 -11z m808 -214 c-18 -2 -48 -2 -65 0 -18 2 -4 4
32 4 36 0 50 -2 33 -4z m0 -30 c-18 -2 -48 -2 -65 0 -18 2 -4 4 32 4 36 0 50
-2 33 -4z"/>
</g>
</svg>
