<?xml version="1.0" standalone="no"?>
<!DOCTYPE svg PUBLIC "-//W3C//DTD SVG 20010904//EN"
 "http://www.w3.org/TR/2001/REC-SVG-20010904/DTD/svg10.dtd">
<svg version="1.0" xmlns="http://www.w3.org/2000/svg"
 width="1280.000000pt" height="628.000000pt" viewBox="0 0 1280.000000 628.000000"
 preserveAspectRatio="xMidYMid meet">

<g transform="translate(0.000000,628.000000) scale(0.100000,-0.100000)"
fill="#000000" stroke="none">
<path d="M11983 5873 c120 -2 314 -2 430 0 117 1 19 2 -218 2 -236 0 -332 -1
-212 -2z"/>
<path d="M9509 4558 c-3 -34 4 -84 12 -92 8 -9 14 13 10 37 -1 10 21 9 39 -3
13 -9 13 -10 0 -10 -8 -1 -5 -5 8 -11 14 -5 20 -13 16 -20 -4 -8 -3 -9 4 -5 6
4 17 -2 24 -14 15 -23 35 -25 61 -6 21 17 22 36 1 36 -9 0 -41 23 -71 50 -53
48 -102 66 -104 38z m41 -22 c0 -11 -19 -15 -25 -6 -3 5 1 10 9 10 9 0 16 -2
16 -4z"/>
<path d="M9920 4450 c-23 -15 1 -44 39 -48 36 -4 40 9 11 38 -22 22 -29 24
-50 10z"/>
<path d="M9783 4434 c-7 -3 -10 -11 -7 -18 3 -7 1 -23 -4 -37 -5 -13 -6 -33
-2 -44 4 -11 14 -39 21 -63 14 -50 24 -59 44 -42 12 10 16 9 21 -4 9 -23 34
-20 34 5 0 18 2 19 15 9 19 -16 19 -36 0 -44 -13 -4 -10 -12 12 -45 16 -22 33
-40 39 -41 6 0 17 -7 24 -15 15 -18 51 -20 44 -2 -2 7 5 22 16 34 43 47 12
115 -58 129 -21 4 -38 17 -49 35 -9 15 -25 30 -35 32 -13 4 -18 15 -18 44 0
48 -10 64 -38 58 -12 -2 -22 0 -22 6 0 9 -17 11 -37 3z"/>
<path d="M9703 4420 c-13 -5 -23 -14 -23 -19 0 -16 -51 -62 -84 -76 -40 -17
-53 -10 -51 24 1 21 -2 28 -12 24 -7 -3 -13 -10 -13 -17 0 -6 -14 -38 -31 -70
-23 -43 -32 -73 -31 -105 1 -117 1 -119 19 -124 17 -4 17 -5 1 -6 -24 -1 -23
-18 1 -26 27 -8 74 12 67 30 -3 8 -1 17 4 20 5 3 7 14 5 25 -2 11 0 20 4 20 4
0 15 16 24 35 14 28 22 35 47 35 23 0 33 7 45 30 8 16 13 40 10 52 -12 54 -13
78 -3 78 5 0 8 -7 4 -15 -10 -26 12 -16 34 15 12 17 26 28 31 25 5 -4 9 8 9
24 0 33 -14 38 -57 21z"/>
<path d="M10077 4268 c-6 -18 10 -46 34 -58 20 -11 20 -11 -1 29 -22 44 -26
48 -33 29z"/>
<path d="M9680 4130 c0 -5 5 -10 10 -10 6 0 10 5 10 10 0 6 -4 10 -10 10 -5 0
-10 -4 -10 -10z"/>
<path d="M9707 4053 c-13 -12 -7 -22 12 -20 11 0 17 6 14 14 -6 14 -16 17 -26
6z"/>
<path d="M11050 4052 c-5 -2 -10 -10 -10 -18 0 -20 74 -17 128 5 l44 17 -76 0
c-41 -1 -80 -2 -86 -4z"/>
<path d="M9555 4010 c-3 -5 -2 -10 4 -10 5 0 13 5 16 10 3 6 2 10 -4 10 -5 0
-13 -4 -16 -10z"/>
<path d="M11329 3833 c-13 -15 -12 -15 9 -4 23 12 28 21 13 21 -5 0 -15 -7
-22 -17z"/>
<path d="M11460 3836 c0 -15 18 -31 26 -23 7 7 -7 37 -17 37 -5 0 -9 -6 -9
-14z"/>
<path d="M11280 3815 c-8 -9 -8 -15 -2 -15 12 0 26 19 19 26 -2 2 -10 -2 -17
-11z"/>
<path d="M11327 3775 c-8 -7 -26 -12 -42 -11 -22 3 -29 -2 -40 -26 -11 -28
-13 -28 -18 -9 -7 27 -27 28 -27 1 0 -12 -7 -20 -17 -20 -16 -1 -16 -2 1 -15
14 -10 20 -29 22 -59 1 -37 -3 -49 -24 -67 -24 -21 -24 -22 -6 -32 10 -5 21
-11 23 -13 2 -2 6 -23 8 -46 3 -24 18 -70 33 -103 27 -56 29 -70 31 -190 1
-89 -4 -153 -15 -203 -15 -68 -29 -100 -93 -210 -29 -49 -27 -77 8 -136 18
-31 24 -35 31 -22 12 21 30 20 26 -1 -2 -10 10 -33 26 -50 28 -32 56 -43 56
-23 0 6 -5 10 -11 10 -6 0 -8 7 -5 16 4 9 2 22 -4 29 -7 8 -3 15 16 24 23 10
25 9 19 -8 -4 -13 3 -27 22 -45 40 -37 24 -51 -69 -55 -10 -1 -15 -8 -13 -18
2 -10 4 -21 4 -26 2 -17 59 -68 66 -57 3 6 11 8 16 5 5 -4 9 3 9 14 0 24 35
95 56 112 8 6 14 21 14 32 0 19 -1 20 -20 2 -19 -17 -20 -17 -20 0 0 9 13 32
29 50 l28 33 28 -44 c31 -49 29 -48 56 -34 41 23 10 97 -36 86 -18 -5 -24 -1
-29 19 -4 14 -13 25 -22 25 -24 0 -11 25 15 28 16 3 20 8 16 23 -4 10 -3 24 1
31 5 7 8 22 9 33 0 11 10 24 22 30 17 7 21 15 17 30 -4 11 -11 23 -17 26 -5 4
1 10 14 14 13 4 26 11 29 15 3 4 20 11 38 15 29 6 32 5 32 -18 0 -14 -6 -27
-14 -30 -17 -7 -51 -75 -43 -84 4 -3 13 0 22 7 25 21 29 4 11 -50 -14 -42 -15
-58 -5 -93 10 -37 12 -39 20 -21 13 35 26 36 49 4 12 -16 17 -30 11 -30 -6 0
-11 -6 -11 -14 0 -16 37 -28 46 -15 3 6 14 7 25 4 14 -5 20 0 25 19 3 14 12
26 20 26 8 0 14 4 14 8 0 12 32 11 47 0 13 -11 53 27 53 51 0 14 1 14 10 1 18
-28 10 -57 -25 -95 -20 -21 -39 -50 -42 -66 -3 -16 -8 -29 -12 -29 -3 0 -5
-20 -3 -45 3 -28 0 -45 -7 -45 -8 0 -8 -6 -2 -17 17 -32 24 -57 27 -98 2 -22
7 -47 10 -55 4 -8 8 -22 8 -30 1 -23 49 -14 131 24 115 54 222 165 266 278 12
29 25 62 30 73 5 11 8 35 7 52 -1 32 -1 32 -19 12 -9 -11 -19 -15 -21 -9 -2 7
-41 5 -122 -6 -98 -12 -121 -13 -127 -2 -7 10 -9 8 -9 -5 0 -10 -4 -16 -9 -12
-5 3 -12 -3 -14 -12 -3 -13 -5 -12 -6 5 0 13 -5 20 -11 17 -14 -9 -12 9 3 24
10 10 9 11 -4 6 -12 -5 -18 1 -24 22 -3 15 -19 44 -33 63 -34 44 -45 65 -93
175 -21 50 -39 102 -39 118 0 15 -4 27 -10 27 -5 0 -17 14 -26 31 -13 27 -14
42 -4 108 11 73 14 96 26 189 3 23 9 40 14 37 25 -16 60 91 36 107 -7 5 -4 8
7 8 16 0 17 9 15 83 -3 72 -5 82 -20 79 -10 -2 -18 2 -18 8 0 5 -4 10 -8 10
-4 0 -8 -16 -8 -35 0 -37 -22 -71 -31 -47 -3 6 -12 12 -21 13 -11 0 -12 2 -4
6 17 7 15 20 -8 43 -29 29 -65 25 -89 -9 l-21 -29 21 -5 c16 -4 19 -2 14 16
-6 20 -5 21 8 5 17 -21 43 -24 50 -5 2 6 5 -9 5 -34 1 -40 -2 -47 -28 -63 -38
-22 -39 -53 -3 -82 32 -26 39 -64 10 -61 -14 1 -20 -5 -22 -25 -2 -15 0 -30 5
-33 5 -3 7 -12 3 -20 -4 -11 3 -15 26 -15 44 0 52 -27 18 -54 -26 -21 -36 -59
-19 -70 5 -3 5 -27 0 -53 -5 -26 -11 -70 -14 -96 -5 -52 -12 -63 -60 -92 -37
-21 -74 -14 -54 10 6 7 18 40 25 72 8 32 17 67 21 78 7 19 7 19 -13 3 -11 -10
-25 -18 -31 -18 -15 0 -27 -21 -15 -29 6 -4 5 -17 -3 -37 l-13 -30 -89 -3
c-110 -2 -128 10 -134 92 -5 74 13 93 76 79 37 -8 56 -7 82 4 18 8 44 14 57
14 13 0 33 11 45 25 20 22 40 30 66 26 13 -3 46 30 46 45 0 28 -23 24 -57 -11
-34 -35 -37 -36 -87 -30 -28 4 -67 15 -86 25 -25 12 -43 15 -64 9 -30 -8 -46
-5 -46 11 0 5 28 8 61 8 49 -1 65 3 75 17 19 25 18 38 -2 31 -16 -6 -64 34
-64 54 0 5 -14 25 -31 45 -26 29 -29 38 -19 50 7 8 20 15 29 16 10 0 11 2 4 6
-7 2 -27 -3 -44 -11 -18 -9 -33 -16 -35 -16 -1 0 -1 20 2 44 3 31 0 47 -11 56
-19 16 -19 49 0 56 8 3 28 1 44 -4 28 -10 29 -9 35 23 5 27 2 39 -13 54 -17
17 -22 18 -34 6z m453 -286 c0 -5 -4 -9 -10 -9 -5 0 -10 7 -10 16 0 8 5 12 10
9 6 -3 10 -10 10 -16z m-298 -471 c-28 -28 -38 -18 -11 11 12 12 24 20 27 16
3 -3 -4 -15 -16 -27z m-208 -334 c9 -3 16 -12 16 -20 0 -20 -13 -17 -28 6 -13
22 -12 23 12 14z m-13 -77 c-1 -12 -15 -9 -19 4 -3 6 1 10 8 8 6 -3 11 -8 11
-12z m619 -142 c0 -1 -9 -5 -20 -8 -12 -3 -20 0 -20 8 0 8 8 11 20 8 11 -3 20
-7 20 -8z"/>
<path d="M11580 3770 c0 -11 4 -20 9 -20 13 0 32 26 24 33 -13 14 -33 6 -33
-13z"/>
<path d="M11026 3655 c4 -8 12 -15 20 -15 19 0 18 16 -2 24 -22 9 -24 8 -18
-9z"/>
<path d="M11625 3500 c-4 -6 5 -10 20 -10 15 0 24 4 20 10 -3 6 -12 10 -20 10
-8 0 -17 -4 -20 -10z"/>
<path d="M11420 3470 c0 -13 10 -24 26 -30 33 -13 64 -13 64 0 0 6 -6 10 -14
10 -7 0 -16 9 -19 20 -7 28 -57 28 -57 0z"/>
<path d="M9446 3152 c-3 -5 17 -46 43 -92 32 -55 51 -78 56 -70 5 8 2 18 -7
24 -16 12 -39 91 -32 110 3 7 -7 18 -21 24 -31 14 -32 14 -39 4z"/>
<path d="M5919 3043 c-4 -27 6 -138 10 -118 6 26 5 145 0 145 -4 0 -8 -12 -10
-27z"/>
<path d="M6119 3044 c-1 -16 0 -43 1 -60 2 -37 -21 -58 -54 -50 -50 13 -40 86
12 86 20 0 23 3 13 9 -21 13 -58 -7 -66 -36 -12 -51 48 -96 83 -61 9 9 12 9
12 -1 0 -7 4 -10 8 -7 9 6 7 134 -2 144 -3 3 -6 -8 -7 -24z"/>
<path d="M3140 2990 l0 -70 29 0 c37 0 61 9 61 23 0 7 -4 7 -12 -1 -7 -7 -25
-12 -40 -12 -24 0 -28 4 -28 30 0 27 3 30 30 30 17 0 33 -7 39 -17 6 -10 11
-13 11 -6 0 6 -4 15 -10 18 -6 4 -5 13 2 24 14 23 4 51 -19 51 -15 0 -15 -1 2
-14 27 -20 13 -46 -26 -46 -29 0 -31 2 -27 30 3 17 1 30 -4 30 -4 0 -8 -31 -8
-70z"/>
<path d="M4169 3043 c-4 -82 9 -124 40 -122 11 0 9 3 -6 9 -19 8 -23 17 -23
49 0 24 5 41 13 43 9 2 8 8 -5 21 -17 16 -18 16 -19 0z"/>
<path d="M5192 3040 c-7 -11 -8 -20 -3 -20 6 0 11 -21 13 -47 2 -34 7 -48 18
-49 9 0 10 1 3 3 -8 3 -13 22 -13 48 0 33 4 45 18 48 15 4 15 5 0 6 -9 0 -18
8 -20 16 -2 13 -6 12 -16 -5z"/>
<path d="M6319 3043 c-13 -17 -13 -17 6 -3 11 8 22 16 24 17 2 2 0 3 -6 3 -6
0 -17 -8 -24 -17z"/>
<path d="M6382 3039 c11 -17 10 -22 -6 -35 -17 -12 -17 -14 -4 -14 9 0 20 5
23 11 9 14 -3 59 -15 59 -6 0 -5 -9 2 -21z"/>
<path d="M3420 3022 c-21 -17 -21 -19 -5 -35 9 -9 25 -17 36 -17 24 0 26 -37
2 -43 -14 -3 -13 -4 2 -3 31 2 28 50 -3 54 -27 4 -41 30 -21 42 7 5 21 4 31
-1 10 -5 18 -7 18 -5 0 3 -9 10 -19 16 -15 7 -24 5 -41 -8z"/>
<path d="M3534 3015 c-13 -13 -24 -31 -24 -40 0 -19 35 -55 54 -55 23 0 46 11
46 23 0 7 -4 7 -12 -1 -17 -17 -44 -15 -62 4 -22 21 -20 40 5 65 19 19 22 20
46 4 17 -11 24 -13 21 -4 -2 6 -14 16 -27 20 -17 7 -28 3 -47 -16z"/>
<path d="M3664 3015 c-18 -19 -23 -31 -19 -48 8 -26 33 -47 54 -46 10 0 8 3
-6 9 -50 20 -48 81 3 90 24 5 26 7 11 13 -12 5 -26 -1 -43 -18z"/>
<path d="M3806 3024 c-24 -23 -20 -33 19 -50 19 -8 35 -19 35 -24 0 -18 -32
-24 -54 -10 -19 12 -20 12 -7 -4 20 -24 65 -17 69 11 3 17 -3 24 -22 29 -36 9
-50 28 -32 43 11 9 20 10 38 1 22 -11 22 -10 4 4 -25 20 -31 20 -50 0z"/>
<path d="M3992 3027 c-42 -19 -41 -92 3 -103 13 -3 32 -1 43 5 15 8 22 8 25
-2 3 -6 6 14 6 46 1 36 -3 56 -9 52 -5 -3 -18 -2 -27 3 -11 6 -26 6 -41 -1z
m63 -28 c4 -5 4 -21 1 -33 -11 -46 -71 -44 -82 1 -13 50 54 77 81 32z"/>
<path d="M4477 3029 c-9 -5 -22 -7 -27 -4 -6 4 -9 -16 -8 -52 1 -47 2 -50 5
-18 5 48 18 65 49 65 24 0 29 -10 37 -75 3 -20 5 -14 6 17 2 87 70 87 73 0 1
-39 2 -41 5 -13 9 71 -19 105 -62 77 -20 -13 -25 -13 -35 -1 -15 17 -19 18
-43 4z"/>
<path d="M4682 3025 c-41 -29 -21 -105 28 -105 10 0 22 4 25 10 3 5 0 7 -9 4
-21 -8 -56 14 -56 36 0 35 12 50 41 50 31 0 54 -29 45 -58 -3 -9 -1 -24 4 -32
7 -11 10 1 10 40 0 46 -3 56 -17 56 -10 1 -25 4 -33 8 -8 3 -25 -1 -38 -9z"/>
<path d="M4824 3025 c-24 -17 -9 -47 26 -55 13 -3 25 -11 28 -18 6 -18 -28
-27 -49 -13 -11 6 -19 7 -19 1 0 -18 51 -24 67 -7 14 13 14 19 3 31 -7 9 -21
16 -32 16 -23 0 -36 29 -17 40 7 5 21 4 31 -1 10 -5 18 -7 18 -5 0 3 -8 10
-19 15 -13 7 -24 6 -37 -4z"/>
<path d="M4942 3024 c-30 -21 -31 -79 -1 -94 23 -13 69 -6 69 10 0 6 -9 5 -20
-2 -47 -30 -83 49 -38 84 28 22 21 24 -10 2z"/>
<path d="M5079 3026 c-34 -16 -39 -80 -9 -96 46 -25 97 16 83 68 -7 29 -44 43
-74 28z m59 -48 c3 -33 0 -38 -23 -44 -32 -8 -55 10 -55 46 0 35 8 42 45 38
27 -3 30 -7 33 -40z"/>
<path d="M5286 3019 c-14 -11 -26 -28 -26 -38 0 -27 29 -61 53 -60 20 0 19 2
-5 10 -51 19 -44 85 9 91 22 2 24 5 11 10 -10 4 -27 -1 -42 -13z"/>
<path d="M5520 3030 c-9 -6 -4 -9 16 -12 23 -2 30 -8 32 -31 6 -53 -43 -77
-72 -36 -10 15 -12 28 -6 44 7 17 5 25 -6 29 -12 4 -14 -9 -12 -77 1 -45 3
-65 5 -44 5 41 5 42 32 25 15 -9 25 -9 45 0 21 9 26 18 26 50 0 31 -5 41 -23
49 -13 6 -30 7 -37 3z"/>
<path d="M5645 3028 c-24 -14 -35 -28 -35 -48 0 -12 11 -14 55 -12 33 2 55 8
55 15 -1 33 -46 60 -75 45z m63 -36 c4 -14 -74 -17 -83 -3 -3 5 5 17 17 25 19
13 25 14 42 3 11 -8 22 -19 24 -25z"/>
<path d="M5851 3022 c-31 -27 -35 -58 -12 -81 21 -21 56 -28 65 -12 3 4 -5 6
-17 4 -30 -6 -49 18 -45 54 2 22 9 29 33 33 23 4 26 7 13 12 -10 4 -25 0 -37
-10z"/>
<path d="M6191 3021 c-27 -27 -27 -63 0 -86 17 -16 25 -17 49 -8 21 8 30 8 34
-1 2 -6 5 14 5 44 1 46 -2 56 -16 56 -10 1 -26 4 -35 8 -11 5 -24 0 -37 -13z
m67 -13 c32 -32 -4 -87 -48 -73 -25 8 -37 50 -20 70 15 18 51 20 68 3z"/>
<path d="M3070 3019 c0 -5 5 -7 10 -4 6 3 10 8 10 11 0 2 -4 4 -10 4 -5 0 -10
-5 -10 -11z"/>
<path d="M3272 2990 c-2 -50 10 -70 43 -70 18 0 17 2 -5 13 -19 10 -26 23 -31
57 l-6 45 -1 -45z"/>
<path d="M3353 3010 c1 -11 5 -20 9 -20 11 0 10 28 -1 35 -6 3 -9 -4 -8 -15z"/>
<path d="M3739 3026 c-7 -8 3 -106 10 -101 5 2 6 26 3 52 -4 50 -6 56 -13 49z"/>
<path d="M4252 2989 c-2 -54 11 -69 56 -66 l32 2 -2 55 -2 55 -3 -47 c-4 -48
-20 -64 -54 -53 -13 4 -19 19 -22 53 l-3 47 -2 -46z"/>
<path d="M4994 3015 c8 -8 18 -15 22 -15 3 0 1 7 -6 15 -7 8 -17 15 -22 15 -5
0 -3 -7 6 -15z"/>
<path d="M5359 3023 c-1 -5 0 -21 1 -36 1 -15 -4 -35 -12 -44 -7 -10 -8 -14
-1 -10 6 4 14 1 16 -5 3 -7 6 13 6 45 1 31 -1 57 -4 57 -3 0 -5 -3 -6 -7z"/>
<path d="M5752 2970 c1 -50 2 -51 5 -13 3 28 11 47 24 57 20 14 20 14 -5 12
-25 -1 -26 -3 -24 -56z"/>
<path d="M5983 2975 c0 -33 2 -45 4 -27 2 18 2 45 0 60 -2 15 -4 0 -4 -33z"/>
<path d="M3070 2982 c0 -4 -10 -12 -22 -17 -27 -12 -35 -47 -14 -64 19 -16 58
-10 63 9 4 12 3 12 -5 2 -5 -8 -20 -12 -33 -10 -33 4 -34 52 -1 56 12 2 22 10
22 18 0 8 -2 14 -5 14 -3 0 -5 -3 -5 -8z"/>
<path d="M3348 2955 c-3 -14 -1 -28 3 -31 5 -3 9 -2 10 3 0 4 2 18 5 31 2 12
0 22 -5 22 -5 0 -11 -11 -13 -25z"/>
<path d="M3405 2940 c3 -5 8 -10 11 -10 2 0 4 5 4 10 0 6 -5 10 -11 10 -5 0
-7 -4 -4 -10z"/>
<path d="M5634 2935 c26 -20 50 -19 67 2 13 15 12 15 -8 3 -17 -11 -27 -11
-50 -2 -26 11 -27 11 -9 -3z"/>
<path d="M11540 2749 c0 -5 5 -7 10 -4 6 3 10 8 10 11 0 2 -4 4 -10 4 -5 0
-10 -5 -10 -11z"/>
<path d="M11495 2740 c4 -6 11 -8 16 -5 14 9 11 15 -7 15 -8 0 -12 -5 -9 -10z"/>
<path d="M1292 2625 c0 -22 2 -32 5 -23 2 9 14 19 26 21 l22 4 -22 2 c-12 0
-24 9 -26 19 -3 9 -5 -1 -5 -23z"/>
<path d="M1580 2631 c0 -17 2 -31 4 -31 8 0 13 51 5 56 -5 3 -9 -9 -9 -25z"/>
<path d="M6582 2620 c0 -19 2 -27 5 -17 2 9 2 25 0 35 -3 9 -5 1 -5 -18z"/>
<path d="M1932 2620 c0 -14 2 -19 5 -12 2 6 2 18 0 25 -3 6 -5 1 -5 -13z"/>
<path d="M1972 2615 c0 -16 2 -22 5 -12 2 9 2 23 0 30 -3 6 -5 -1 -5 -18z"/>
<path d="M2302 2615 c0 -16 2 -22 5 -12 2 9 2 23 0 30 -3 6 -5 -1 -5 -18z"/>
<path d="M3272 2620 c0 -14 2 -19 5 -12 2 6 2 18 0 25 -3 6 -5 1 -5 -13z"/>
<path d="M6171 2624 c0 -11 3 -14 6 -6 3 7 2 16 -1 19 -3 4 -6 -2 -5 -13z"/>
<path d="M6952 2610 c0 -14 2 -19 5 -12 2 6 2 18 0 25 -3 6 -5 1 -5 -13z"/>
<path d="M7262 2610 c0 -14 2 -19 5 -12 2 6 2 18 0 25 -3 6 -5 1 -5 -13z"/>
<path d="M9614 2565 c-11 -17 -16 -48 -16 -106 0 -78 1 -82 28 -105 16 -13 32
-23 35 -24 3 0 9 24 13 53 19 161 -12 255 -60 182z"/>
<path d="M10947 2533 l-17 -38 20 24 c11 13 20 29 20 37 0 22 -5 17 -23 -23z"/>
<path d="M9211 2513 c-27 -34 -35 -64 -28 -114 5 -38 51 -107 69 -101 4 1 8
-5 8 -14 0 -10 -6 -14 -15 -10 -10 3 -15 -1 -15 -13 0 -26 10 -32 27 -15 14
14 17 13 27 -8 7 -13 8 -26 3 -29 -13 -9 2 -51 16 -46 6 2 23 -2 37 -10 23
-12 26 -11 37 15 6 15 8 31 5 37 -3 5 -7 4 -10 -3 -2 -7 -12 -12 -22 -12 -15
0 -17 5 -11 28 6 20 14 28 37 30 52 6 96 64 59 78 -8 4 -15 11 -15 17 0 22
-66 141 -93 169 -38 38 -87 39 -116 1z m179 -161 c0 -10 -7 -33 -16 -50 -12
-26 -18 -29 -29 -19 -11 10 -11 16 2 36 13 20 13 25 2 32 -10 6 -11 9 -1 9 6
0 12 9 12 21 0 18 2 19 15 5 8 -8 15 -23 15 -34z"/>
<path d="M10997 2513 c-3 -15 -24 -56 -47 -90 -38 -56 -42 -69 -44 -129 -2
-61 0 -69 32 -110 38 -49 48 -53 57 -25 6 21 -3 51 -16 51 -5 0 -9 5 -9 11 0
6 9 8 21 4 18 -6 20 -3 18 22 -2 15 0 34 4 41 14 21 23 145 15 191 -10 56 -23
71 -31 34z"/>
<path d="M11465 2511 c4 -7 8 -23 9 -35 1 -22 35 -31 48 -12 10 15 -2 36 -21
36 -9 0 -23 6 -30 13 -11 10 -12 9 -6 -2z"/>
<path d="M1932 2455 c0 -16 2 -22 5 -12 2 9 2 23 0 30 -3 6 -5 -1 -5 -18z"/>
<path d="M10855 2374 c-45 -76 -54 -98 -44 -105 21 -13 39 -11 39 6 0 8 4 15
9 15 5 0 11 23 15 51 4 29 16 69 27 90 35 69 13 42 -46 -57z"/>
<path d="M1291 2444 c0 -11 3 -14 6 -6 3 7 2 16 -1 19 -3 4 -6 -2 -5 -13z"/>
<path d="M2031 2444 c0 -11 3 -14 6 -6 3 7 2 16 -1 19 -3 4 -6 -2 -5 -13z"/>
<path d="M10257 2388 c-50 -67 -60 -97 -53 -162 l6 -61 -20 24 -21 24 5 -54
c6 -66 29 -125 55 -138 10 -6 50 -52 88 -103 69 -91 71 -95 75 -163 5 -65 32
-144 45 -131 3 3 33 -19 67 -49 33 -30 66 -55 72 -55 6 0 27 -16 47 -35 34
-34 66 -43 100 -29 8 3 13 13 11 22 -3 9 4 41 15 70 11 28 15 52 10 52 -5 0
-26 -27 -46 -59 l-37 -60 -28 17 c-37 21 -33 47 7 47 36 1 55 11 55 30 0 26
47 48 90 42 43 -6 59 5 40 28 -10 12 -6 18 24 30 20 8 36 19 36 23 0 5 18 16
40 26 22 10 38 22 35 27 -4 5 0 9 8 9 12 0 15 16 16 74 1 96 -14 112 -94 102
-32 -4 -55 -2 -55 3 0 5 -9 12 -19 16 -11 3 -18 12 -15 19 6 16 -83 100 -89
83 -3 -6 -6 -1 -6 12 -1 16 -5 21 -15 18 -9 -4 -29 10 -50 34 -39 42 -39 43
-30 76 6 21 7 21 30 6 13 -8 24 -20 24 -27 0 -6 18 -31 40 -54 22 -24 40 -48
40 -52 0 -12 41 -50 53 -50 5 0 7 14 4 30 -6 25 -3 30 13 30 11 0 20 3 20 6 0
10 -50 67 -50 57 0 -18 -20 23 -20 42 0 11 -9 26 -21 33 -12 8 -18 19 -15 28
7 18 4 17 -69 -1 -33 -9 -65 -23 -72 -31 -10 -13 -12 -13 -20 -1 -6 12 -19 13
-58 7 -63 -10 -76 -1 -149 94 -30 39 -64 80 -75 90 -18 17 -20 16 -44 -16z
m503 -188 c0 -5 -2 -10 -4 -10 -3 0 -8 5 -11 10 -3 6 -1 10 4 10 6 0 11 -4 11
-10z"/>
<path d="M11800 2359 c0 -5 5 -7 10 -4 6 3 10 8 10 11 0 2 -4 4 -10 4 -5 0
-10 -5 -10 -11z"/>
<path d="M11746 2274 c-6 -16 2 -18 22 -5 11 7 11 9 -1 14 -9 3 -18 -1 -21 -9z"/>
<path d="M9558 2255 c2 -14 11 -25 18 -25 26 0 14 -18 -15 -25 -17 -3 -31 -14
-34 -25 -3 -11 -17 -24 -31 -30 -14 -5 -26 -14 -26 -19 0 -5 -3 -18 -7 -28 -3
-10 -3 -15 2 -11 4 4 14 1 22 -7 10 -11 11 -19 3 -34 -10 -19 4 -72 19 -70 6
0 67 72 97 114 10 13 9 8 -2 -15 -9 -19 -20 -37 -24 -40 -3 -3 -21 -31 -39
-62 -33 -60 -47 -73 -38 -38 7 27 -10 36 -18 9 -6 -17 -9 -19 -16 -8 -5 8 -6
22 -3 31 3 10 1 26 -5 35 -8 15 -10 13 -8 -12 2 -26 -1 -30 -22 -27 -18 2 -22
-2 -17 -14 11 -28 -5 -37 -28 -16 -11 11 -32 22 -46 24 -20 2 -25 9 -26 32 -1
20 -12 39 -33 58 -36 32 -63 38 -36 8 16 -18 16 -20 1 -26 -9 -3 -27 -3 -41 0
-14 4 -25 2 -25 -2 0 -5 -39 -13 -87 -19 l-88 -10 80 -3 c125 -5 130 -6 193
-29 81 -31 103 -55 105 -120 2 -49 9 -62 22 -41 3 6 11 10 16 10 5 0 3 -10 -6
-23 -12 -19 -13 -34 -5 -78 6 -31 17 -58 26 -64 44 -26 67 -55 83 -101 13 -36
15 -53 7 -60 -24 -23 -66 -78 -66 -87 0 -5 -20 -28 -44 -53 -44 -43 -69 -54
-81 -34 -3 6 -15 10 -27 10 -15 0 -19 -5 -15 -20 3 -13 0 -20 -9 -20 -8 0 -14
-9 -14 -20 0 -12 -7 -20 -16 -20 -12 0 -14 -7 -10 -27 3 -16 3 -40 -1 -55 -8
-26 -9 -26 -30 -9 -11 10 -23 29 -25 42 -3 25 -38 40 -38 17 0 -14 24 -47 77
-108 37 -42 129 -95 222 -127 95 -33 251 -32 351 1 208 71 356 251 379 461 13
116 -14 254 -67 345 -32 54 -67 105 -75 108 -4 2 -5 8 -1 13 3 5 0 9 -6 9 -6
0 -8 5 -5 10 3 6 2 10 -4 10 -5 0 -12 -6 -14 -12 -4 -10 -6 -10 -6 0 -1 17
-28 15 -35 -3 -3 -8 -12 -15 -21 -15 -18 0 -20 -16 -2 -23 9 -4 9 -6 -1 -6 -7
-1 -11 -5 -7 -10 3 -5 1 -12 -5 -16 -5 -3 -10 -2 -10 4 0 6 -21 9 -50 8 -53
-2 -58 -5 -38 -25 9 -9 5 -12 -21 -12 -24 0 -32 -4 -28 -14 7 -17 -54 -29 -65
-13 -4 7 -13 3 -25 -11 -24 -28 -104 -56 -115 -39 -4 6 -10 8 -14 4 -4 -4 -13
-2 -21 4 -7 6 -22 9 -33 6 -17 -4 -20 -2 -14 15 4 14 2 18 -5 14 -6 -4 -11 -1
-11 8 0 8 -6 17 -12 19 -10 4 -10 6 0 6 7 1 10 6 7 11 -3 6 3 10 15 10 11 0
23 7 27 16 4 11 13 13 37 8 46 -10 88 -7 97 8 5 7 9 10 9 6 0 -5 23 1 52 12
28 10 56 16 61 13 6 -3 7 -1 4 4 -4 6 4 13 18 15 14 3 25 1 25 -3 0 -5 4 -9 8
-9 4 0 8 25 8 55 -1 40 -6 59 -20 72 -10 10 -16 12 -12 6 4 -7 3 -13 -2 -13
-5 0 -21 18 -36 41 -22 33 -32 40 -54 37 -22 -2 -30 -11 -41 -47 -11 -35 -16
-40 -23 -27 -5 9 -6 21 -3 26 3 6 1 10 -5 10 -11 0 -20 -16 -24 -42 -1 -8 -12
-27 -24 -44 l-22 -29 17 45 c9 25 27 58 40 73 23 29 28 52 24 117 -3 40 -27
84 -42 75 -5 -4 -7 -10 -4 -15 3 -4 -2 -11 -11 -14 -22 -9 -23 -8 -17 14 4 13
0 20 -9 20 -11 0 -14 -7 -10 -25z m462 -366 c0 -6 -4 -7 -10 -4 -5 3 -10 11
-10 16 0 6 5 7 10 4 6 -3 10 -11 10 -16z"/>
<path d="M9710 2251 c-8 -6 -18 -7 -22 -5 -4 3 -8 -13 -8 -35 0 -37 2 -41 25
-41 18 0 28 -7 34 -24 5 -13 16 -26 23 -29 20 -7 11 99 -10 124 -19 22 -21 22
-42 10z"/>
<path d="M11622 2247 c-23 -10 -22 -11 20 -24 24 -7 59 -12 78 -12 33 0 34 1
10 10 -13 6 -27 14 -30 18 -9 15 -55 19 -78 8z"/>
<path d="M9045 2180 c3 -5 8 -10 11 -10 2 0 4 5 4 10 0 6 -5 10 -11 10 -5 0
-7 -4 -4 -10z"/>
<path d="M9070 2161 c0 -5 7 -11 15 -15 8 -3 15 -1 15 3 0 5 -7 11 -15 15 -8
3 -15 1 -15 -3z"/>
<path d="M10876 2099 c1 -62 1 -62 32 -65 41 -5 59 24 42 67 -9 21 -19 29 -39
29 -25 1 -25 1 -7 15 19 15 19 15 -5 15 -23 0 -24 -3 -23 -61z m58 -15 c9 -24
2 -26 -12 -4 -7 11 -8 20 -3 20 5 0 12 -7 15 -16z"/>
<path d="M9170 2115 c0 -8 8 -15 17 -15 14 0 12 -5 -8 -27 -24 -26 -10 -23 24
5 16 15 16 16 -2 34 -24 22 -31 23 -31 3z"/>
<path d="M9950 2036 c0 -2 8 -10 18 -17 15 -13 16 -12 3 4 -13 16 -21 21 -21
13z"/>
<path d="M8930 1991 c0 -4 11 -6 25 -3 14 2 25 6 25 8 0 2 -11 4 -25 4 -14 0
-25 -4 -25 -9z"/>
<path d="M9960 1993 c0 -4 5 -15 10 -23 8 -13 10 -13 10 2 0 9 -4 20 -10 23
-5 3 -10 3 -10 -2z"/>
<path d="M9990 1970 c0 -5 5 -10 11 -10 5 0 7 5 4 10 -3 6 -8 10 -11 10 -2 0
-4 -4 -4 -10z"/>
<path d="M9790 1900 c-6 -11 -8 -20 -6 -20 3 0 10 9 16 20 6 11 8 20 6 20 -3
0 -10 -9 -16 -20z"/>
<path d="M11439 1910 c-1 -8 -2 -19 -4 -25 -1 -5 -3 -16 -3 -23 -1 -7 -6 -11
-10 -8 -5 3 -8 -40 -7 -95 0 -63 5 -103 12 -107 6 -4 14 -45 19 -91 6 -77 8
-82 20 -60 7 13 13 34 14 46 0 12 17 40 38 62 36 38 37 42 22 56 -9 8 -22 15
-28 15 -17 0 -4 51 17 68 14 12 13 18 -14 67 -38 71 -74 115 -76 95z"/>
<path d="M9816 1893 c-6 -14 -5 -15 5 -6 7 7 10 15 7 18 -3 3 -9 -2 -12 -12z"/>
<path d="M9313 1800 c26 -69 31 -94 19 -98 -7 -2 -12 -12 -12 -23 0 -15 7 -19
35 -19 l34 0 -19 43 c-11 23 -20 48 -20 55 0 7 -10 23 -21 35 -12 12 -19 15
-16 7z"/>
<path d="M9141 1590 c-41 -16 -99 -34 -128 -41 -61 -12 -68 -35 -9 -32 34 2
240 77 261 95 22 19 -56 5 -124 -22z"/>
<path d="M10490 1536 c0 -2 21 -38 46 -80 59 -99 74 -149 74 -254 l0 -86 63
-105 62 -106 5 48 c6 49 28 80 66 91 16 5 24 0 34 -21 21 -46 42 -121 44 -155
0 -10 3 -18 7 -18 25 0 67 144 48 166 -6 7 -19 30 -30 50 -15 30 -16 40 -6 53
9 12 9 13 0 7 -7 -4 -13 -3 -13 3 0 6 -11 13 -25 17 -14 3 -25 10 -25 16 0 5
5 6 12 2 8 -5 9 -2 5 10 -4 10 -7 23 -8 29 -1 7 -4 1 -8 -13 -5 -17 -13 -24
-26 -22 -18 3 -18 2 -1 -22 20 -31 14 -32 -41 -3 -43 23 -86 74 -121 143 -41
85 -138 244 -149 249 -7 2 -13 3 -13 1z"/>
<path d="M9052 1502 c-34 -14 -60 -27 -58 -29 4 -4 104 33 126 47 25 16 -2 9
-68 -18z"/>
<path d="M11457 1388 c-3 -24 -8 -59 -11 -78 -8 -57 -15 -206 -9 -192 3 8 9
10 16 3 9 -7 13 31 15 150 1 87 1 159 -1 159 -3 0 -7 -19 -10 -42z"/>
<path d="M10870 1296 c0 -8 5 -18 10 -21 6 -3 10 0 10 7 0 9 3 9 10 -2 5 -8
10 -10 10 -4 0 12 -20 34 -32 34 -4 0 -8 -6 -8 -14z"/>
<path d="M11044 1283 c-4 -15 -13 -40 -20 -55 -8 -15 -16 -62 -20 -104 -5 -78
-5 -78 15 -60 11 10 18 23 17 29 -2 7 -1 9 1 5 8 -14 23 -8 17 6 -3 8 -1 17 5
21 7 3 8 0 5 -9 -3 -9 -1 -16 5 -16 6 0 11 -5 11 -11 0 -5 -4 -7 -10 -4 -5 3
-10 1 -10 -4 0 -6 5 -11 10 -11 6 0 8 -11 4 -27 -4 -15 -7 -33 -7 -40 0 -7 -7
-13 -15 -13 -11 0 -12 -3 -3 -14 9 -11 9 -15 0 -18 -10 -3 -8 -11 4 -28 9 -14
17 -32 17 -41 0 -9 8 -43 19 -75 24 -79 32 -124 22 -124 -5 0 -11 15 -14 33
-7 44 -32 109 -40 101 -3 -3 -3 3 0 15 3 12 1 21 -6 21 -7 0 -11 6 -10 13 4
34 -3 66 -20 86 l-19 21 -4 -30 c-3 -19 1 -35 10 -42 9 -8 12 -22 8 -40 -4
-21 -2 -28 9 -28 10 0 15 -10 15 -26 0 -22 -2 -25 -15 -14 -13 10 -15 9 -15
-8 0 -12 -8 -22 -17 -24 -12 -2 -14 -6 -6 -11 6 -4 18 -1 26 7 12 13 14 10 13
-19 0 -18 -3 -31 -6 -29 -7 8 -29 -77 -23 -92 6 -15 141 -69 150 -60 4 4 1 21
-5 39 -7 19 -12 40 -12 48 1 21 30 -50 30 -72 0 -12 7 -19 20 -19 11 0 20 7
20 16 0 9 5 12 12 8 8 -5 9 -2 5 11 -4 9 -3 23 2 29 5 6 11 22 13 36 2 17 10
26 26 28 12 2 22 10 22 17 0 19 20 29 32 17 8 -8 19 -7 40 4 26 14 28 16 14
36 -13 18 -13 23 0 35 15 16 19 53 5 53 -5 0 -11 12 -14 26 -3 18 -1 24 9 20
11 -4 14 5 14 37 0 23 7 82 16 130 9 48 15 89 13 90 -2 1 -23 17 -47 35 -24
19 -50 31 -58 28 -18 -7 -18 -26 0 -26 7 0 19 -7 26 -15 10 -13 9 -15 -11 -16
-13 0 -37 -3 -54 -5 -16 -3 -36 -6 -42 -6 -7 -1 -13 -8 -13 -16 0 -9 -3 -12
-7 -9 -3 4 -12 2 -20 -4 -10 -9 -13 -8 -13 3 0 8 -9 25 -20 38 -24 27 -23 23
-8 55 8 19 8 29 0 37 -8 8 -16 2 -31 -23 -12 -19 -21 -42 -21 -51 0 -9 -5 -20
-11 -24 -12 -7 -9 23 7 76 7 25 7 25 -14 6 -24 -21 -26 -16 -13 31 6 19 6 35
1 38 -5 3 -12 -7 -16 -22z m110 -161 c3 -5 -1 -9 -9 -9 -8 0 -15 4 -15 9 0 4
4 8 9 8 6 0 12 -4 15 -8z m166 -122 c0 -11 -4 -20 -10 -20 -5 0 -10 9 -10 20
0 11 5 20 10 20 6 0 10 -9 10 -20z"/>
<path d="M10886 1231 c-3 -5 1 -14 9 -21 13 -10 15 -9 15 9 0 21 -14 28 -24
12z"/>
<path d="M10908 1163 c6 -3 12 -11 12 -19 0 -8 5 -14 10 -14 6 0 10 8 10 18 0
11 -8 18 -22 19 -13 0 -17 -1 -10 -4z"/>
<path d="M11422 1035 c3 -31 1 -58 -4 -61 -14 -9 -9 -24 7 -18 13 5 14 -1 9
-32 -3 -22 -11 -42 -17 -46 -7 -4 -4 -16 9 -35 19 -28 20 -33 23 -56 0 -6 16
-18 34 -26 17 -8 35 -19 39 -25 5 -7 8 -4 8 7 0 9 -5 17 -11 17 -6 0 -8 11 -5
28 4 17 0 42 -13 67 -10 22 -17 44 -14 49 3 4 0 11 -6 15 -6 4 -13 22 -14 39
-1 18 -5 32 -8 32 -3 0 -4 11 -1 25 2 15 0 25 -8 25 -7 0 -6 6 4 16 18 18 21
34 5 34 -5 0 -7 -4 -4 -10 3 -5 1 -10 -4 -10 -6 0 -11 5 -11 10 0 6 -5 10 -11
10 -8 0 -10 -18 -7 -55z"/>
<path d="M11001 884 c0 -11 3 -14 6 -6 3 7 2 16 -1 19 -3 4 -6 -2 -5 -13z"/>
<path d="M10952 720 c3 -38 -5 -54 -15 -27 -3 7 -6 5 -6 -5 -1 -17 10 -23 33
-19 5 1 6 -5 3 -14 -4 -8 -2 -15 3 -15 14 0 13 37 -1 46 -6 3 -9 22 -7 40 2
19 0 34 -5 34 -5 0 -7 -18 -5 -40z"/>
<path d="M10981 730 c0 -8 3 -21 8 -28 6 -10 10 -9 14 7 3 12 1 19 -3 16 -5
-3 -11 1 -13 7 -4 9 -6 8 -6 -2z"/>
<path d="M10905 720 c3 -5 8 -10 11 -10 2 0 4 5 4 10 0 6 -5 10 -11 10 -5 0
-7 -4 -4 -10z"/>
</g>
</svg>
