<?xml version="1.0" standalone="no"?>
<!DOCTYPE svg PUBLIC "-//W3C//DTD SVG 20010904//EN"
 "http://www.w3.org/TR/2001/REC-SVG-20010904/DTD/svg10.dtd">
<svg version="1.0" xmlns="http://www.w3.org/2000/svg"
 width="1280.000000pt" height="886.000000pt" viewBox="0 0 1280.000000 886.000000"
 preserveAspectRatio="xMidYMid meet">

<g transform="translate(0.000000,886.000000) scale(0.100000,-0.100000)"
fill="#000000" stroke="none">
<path d="M6500 8815 c7 -8 19 -15 26 -15 8 0 14 7 14 15 0 10 -10 15 -26 15
-22 0 -25 -2 -14 -15z"/>
<path d="M6600 8800 c0 -11 5 -20 11 -20 5 0 7 5 4 10 -3 6 1 10 9 10 9 0 16
5 16 10 0 6 -9 10 -20 10 -13 0 -20 -7 -20 -20z"/>
<path d="M6760 8810 c0 -5 4 -10 9 -10 6 0 13 5 16 10 3 6 -1 10 -9 10 -9 0
-16 -4 -16 -10z"/>
<path d="M6878 8813 c7 -3 16 -2 19 1 4 3 -2 6 -13 5 -11 0 -14 -3 -6 -6z"/>
<path d="M6480 8786 c0 -9 7 -16 16 -16 9 0 14 5 12 12 -6 18 -28 21 -28 4z"/>
<path d="M6900 8763 c0 -13 5 -23 10 -23 13 0 13 11 0 30 -8 12 -10 11 -10 -7z"/>
<path d="M6327 8756 c-3 -8 -2 -18 3 -21 13 -8 20 9 11 24 -6 10 -10 9 -14 -3z"/>
<path d="M6004 8698 c-3 -4 -9 -6 -14 -3 -21 13 -320 -218 -320 -248 0 -4 -24
-31 -52 -61 -75 -77 -107 -115 -125 -150 -9 -17 -19 -33 -22 -36 -8 -7 -91
-130 -91 -135 0 -3 -7 -13 -15 -22 -74 -86 -78 -93 -66 -120 9 -20 9 -29 -1
-42 -26 -33 -48 -40 -48 -16 0 8 -4 15 -9 15 -12 0 -25 -102 -17 -134 9 -37
-13 -126 -31 -126 -12 0 -13 -3 -3 -15 14 -17 -4 -121 -27 -146 -10 -12 -12
-28 -8 -52 6 -31 4 -36 -17 -43 -12 -5 -34 -9 -48 -9 -21 0 -25 -5 -28 -45 -5
-61 -18 -83 -45 -76 -12 3 -37 6 -55 6 -44 0 -38 24 7 27 18 2 40 8 49 14 13
8 13 9 2 6 -9 -3 -26 4 -39 14 -13 11 -18 19 -11 19 7 0 6 6 -4 16 -18 18 -21
34 -6 34 6 0 10 6 10 14 0 7 19 21 43 30 26 10 48 27 59 46 9 16 29 35 43 42
48 22 27 31 -56 24 -44 -4 -103 -9 -130 -12 -63 -5 -74 -11 -131 -73 -26 -28
-53 -51 -59 -51 -7 0 -27 -11 -45 -25 -18 -14 -35 -25 -38 -25 -3 0 -17 -11
-32 -25 -22 -21 -25 -27 -14 -40 10 -12 10 -15 0 -15 -10 0 -10 -3 0 -15 10
-12 7 -15 -14 -21 -14 -3 -33 -3 -42 0 -17 7 -74 -19 -74 -34 0 -25 -146 -1
-157 26 -3 8 -14 14 -24 14 -10 0 -19 4 -19 9 0 29 -200 39 -234 12 -35 -28
-200 -37 -230 -12 -14 12 -14 15 4 38 11 14 20 33 20 43 0 22 28 47 62 55 15
4 44 22 64 41 61 58 99 84 150 101 27 9 61 24 76 34 14 11 34 19 45 19 13 0
15 2 5 9 -15 9 21 19 93 27 22 3 54 7 71 10 l32 5 -2 67 c-2 68 -26 127 -41
102 -4 -6 -17 -10 -28 -9 -12 0 -24 0 -27 -1 -3 -1 -16 -3 -30 -5 -14 -1 -48
-6 -77 -10 -68 -10 -112 -1 -148 31 -16 15 -59 40 -95 57 -36 17 -72 35 -80
42 -8 7 -49 22 -90 34 -41 13 -83 27 -92 32 -10 5 -26 9 -36 9 -10 0 -22 4
-28 9 -5 5 -34 12 -64 16 -30 3 -82 13 -115 21 -53 13 -246 37 -285 35 -74 -3
-183 0 -261 9 -123 13 -266 13 -274 0 -4 -6 -10 -8 -14 -6 -4 3 -36 -2 -72
-10 -35 -8 -75 -17 -89 -19 -14 -2 -42 -10 -62 -19 -21 -9 -45 -16 -54 -16
-10 0 -25 -7 -35 -16 -9 -8 -23 -17 -31 -18 -7 -1 -23 -8 -35 -14 -13 -7 -23
-10 -23 -7 0 8 -69 -34 -89 -53 -7 -7 -43 -26 -79 -43 -37 -16 -77 -40 -90
-51 -26 -25 -52 -32 -52 -15 -1 7 -7 -3 -15 -21 -8 -17 -25 -36 -38 -41 -13
-5 -27 -17 -30 -25 -4 -9 -18 -21 -32 -28 -14 -6 -25 -16 -25 -22 0 -6 -18
-19 -40 -29 -21 -10 -42 -26 -45 -36 -3 -10 -23 -26 -45 -36 -22 -10 -40 -22
-40 -27 0 -4 -26 -20 -58 -34 -31 -15 -70 -32 -85 -40 -15 -7 -57 -19 -93 -25
-35 -6 -108 -27 -162 -46 -53 -18 -109 -37 -124 -41 -15 -4 -43 -22 -62 -39
-19 -18 -39 -33 -44 -33 -6 0 -13 -8 -16 -17 -3 -10 -22 -29 -42 -43 -20 -13
-48 -37 -63 -52 -14 -15 -31 -28 -37 -28 -6 0 -27 -15 -46 -32 -60 -56 -88
-78 -98 -78 -15 0 -50 -33 -50 -47 0 -7 -4 -13 -10 -13 -20 0 -10 -15 17 -26
35 -14 166 -9 196 8 12 7 24 13 27 13 61 10 82 18 69 26 -9 5 -10 9 -2 9 6 0
15 -4 18 -10 9 -14 25 -12 22 3 -6 30 101 -7 149 -52 19 -18 37 -45 40 -59 3
-15 9 -36 14 -47 5 -11 27 -95 49 -188 40 -164 68 -247 83 -247 5 0 8 -9 8
-19 0 -23 128 -241 141 -241 5 0 9 -5 9 -11 0 -13 108 -118 114 -112 2 3 10
-11 17 -31 7 -19 16 -33 21 -30 4 3 8 -25 8 -61 0 -51 -5 -72 -21 -94 -11 -15
-21 -34 -23 -42 -1 -8 -9 -28 -18 -45 -52 -97 -84 -306 -61 -389 29 -101 46
-167 64 -250 21 -98 37 -145 50 -145 4 0 11 -10 14 -22 8 -27 153 -168 172
-168 7 0 13 -4 13 -10 0 -15 70 -115 108 -156 7 -8 18 -14 24 -14 6 0 21 -11
34 -25 13 -14 30 -25 39 -25 27 0 83 -60 115 -126 30 -59 92 -123 114 -116 4
1 19 -4 32 -13 13 -8 28 -15 34 -15 6 0 32 -15 60 -32 41 -27 52 -43 69 -89
12 -31 24 -92 27 -135 3 -43 7 -95 9 -114 25 -213 28 -325 10 -444 -9 -66 -22
-136 -27 -154 -5 -18 -12 -46 -14 -62 -5 -31 12 -316 22 -365 3 -16 7 -43 9
-60 2 -16 11 -57 20 -90 8 -33 17 -69 19 -81 1 -11 6 -26 10 -33 8 -12 18 -89
17 -136 0 -16 4 -34 8 -40 5 -5 14 -41 21 -80 45 -259 72 -364 146 -560 19
-49 37 -106 41 -125 3 -19 10 -43 15 -53 5 -10 11 -32 13 -50 2 -18 7 -53 10
-79 5 -33 2 -53 -8 -70 -9 -12 -18 -48 -22 -78 -6 -53 -3 -83 30 -285 8 -49
19 -144 24 -210 6 -66 17 -151 25 -190 8 -38 17 -104 20 -145 3 -41 15 -113
26 -159 11 -46 22 -120 24 -165 2 -44 4 -91 5 -103 l1 -23 1803 1 c991 1 1771
5 1732 9 -38 5 -101 10 -139 13 -56 4 -73 9 -87 26 -9 11 -22 21 -27 21 -6 0
-12 5 -14 11 -5 16 -75 38 -101 32 -12 -3 -29 -15 -38 -26 -16 -20 -17 -20
-23 9 -4 16 -14 38 -22 49 -15 20 -15 20 -30 1 -8 -12 -14 -15 -14 -7 0 7 -6
11 -13 8 -7 -2 -23 4 -36 15 -31 24 -45 103 -25 133 13 18 14 17 14 -18 0 -43
9 -46 46 -12 30 28 44 25 38 -8 -4 -19 -3 -19 4 -3 4 10 7 33 6 52 l-3 33 44
-3 c25 -1 48 -5 51 -9 4 -4 14 -2 21 5 10 8 17 8 21 1 4 -6 17 -13 30 -17 19
-6 22 -4 22 18 0 22 3 24 23 17 24 -9 31 -11 48 -11 6 0 9 -7 5 -15 -3 -9 0
-15 10 -15 9 0 12 -5 8 -12 -5 -8 0 -9 14 -6 12 4 22 3 22 -2 0 -15 45 -23
140 -25 140 -3 140 -3 140 -21 0 -10 6 -14 15 -10 8 3 15 1 15 -5 0 -6 5 -7
10 -4 6 3 10 1 10 -6 0 -6 8 -9 20 -6 13 3 20 0 20 -9 0 -18 60 -7 76 14 6 8
16 12 22 8 7 -4 12 -2 12 3 0 19 17 12 23 -9 9 -34 44 -25 58 15 15 40 20 41
54 19 23 -15 37 -43 16 -29 -6 3 -8 -4 -6 -15 6 -29 15 -42 28 -37 8 2 11 25
9 66 -4 61 -3 63 20 59 17 -2 24 -11 28 -33 6 -34 40 -46 40 -15 0 11 14 25
32 34 39 20 38 20 38 -3 0 -27 24 -43 60 -39 19 2 34 -3 40 -12 5 -8 10 -12
10 -8 0 4 18 -2 40 -13 55 -29 121 -20 162 22 16 16 34 29 39 29 5 0 9 4 9 9
0 4 11 20 25 35 23 25 26 26 58 13 27 -12 36 -12 51 -1 22 16 17 49 -8 49 -11
0 -21 6 -24 13 -2 6 -8 10 -13 6 -5 -3 -9 10 -9 29 0 25 -6 39 -24 50 -15 10
-22 24 -21 39 1 13 3 31 4 41 1 12 5 15 14 10 16 -10 50 -4 62 11 6 7 20 16
33 20 12 4 29 22 37 39 8 18 20 41 27 52 7 11 14 21 15 23 4 9 43 -35 43 -48
0 -9 9 -33 20 -55 22 -43 25 -76 10 -91 -14 -14 -2 -42 21 -49 10 -4 19 -13
19 -21 0 -10 10 -13 35 -11 19 1 35 7 35 13 0 7 7 15 16 18 9 3 14 13 11 20
-3 8 1 20 9 26 8 7 14 18 14 25 0 7 9 15 21 18 24 6 41 -28 32 -63 -4 -15 -2
-21 4 -17 16 10 23 60 11 75 -6 7 -8 15 -4 19 3 3 6 1 6 -6 0 -9 5 -9 21 -1
19 10 20 10 10 -9 -6 -11 -11 -24 -11 -29 0 -15 52 -45 59 -35 3 5 13 12 22
15 10 4 19 23 23 48 6 39 8 42 32 36 18 -5 24 -3 19 5 -6 8 -2 8 12 0 11 -6
23 -7 27 -3 4 3 11 0 16 -8 7 -11 10 -5 10 22 0 28 8 45 35 74 30 32 34 42 29
71 -4 21 -2 33 5 33 6 0 11 9 11 20 0 11 3 20 8 20 9 0 32 49 32 69 0 9 -20
28 -44 42 -27 16 -44 34 -43 45 0 57 -4 78 -12 65 -6 -9 -11 -10 -15 -2 -7 11
-122 -44 -157 -75 -8 -8 -25 -14 -38 -14 -12 0 -24 -7 -27 -15 -4 -8 -16 -15
-28 -15 -11 0 -34 -8 -51 -18 -16 -10 -56 -26 -87 -36 -32 -10 -58 -21 -58
-25 0 -9 -92 -53 -117 -56 -10 -1 -25 -4 -33 -7 -8 -4 -38 -9 -67 -12 -29 -3
-62 -12 -75 -20 -38 -24 -217 -73 -315 -87 -170 -22 -432 2 -564 52 -30 12
-74 25 -98 30 -25 5 -52 16 -61 24 -9 8 -28 15 -42 15 -28 0 -164 44 -183 60
-6 5 -29 12 -51 15 -21 4 -57 12 -79 20 -22 7 -59 19 -83 26 -23 7 -38 15 -32
19 5 3 -20 12 -57 20 -38 7 -90 24 -117 39 -28 14 -86 45 -130 69 -45 23 -108
54 -141 69 -33 15 -66 35 -73 45 -7 10 -17 18 -21 18 -8 0 -82 41 -126 70 -45
30 -131 99 -175 140 -25 23 -56 49 -70 57 -29 18 -223 244 -274 318 -18 28
-57 74 -85 103 -28 29 -51 55 -51 57 0 5 -20 29 -73 88 -21 23 -52 64 -69 90
-26 41 -30 54 -24 93 8 59 80 158 212 289 27 27 71 75 96 105 25 30 71 80 102
110 34 32 67 78 82 110 14 30 30 65 36 77 22 46 109 115 238 188 74 42 142 83
150 89 32 26 238 100 315 113 17 2 102 18 190 34 226 42 532 59 623 36 32 -8
78 -43 125 -94 22 -23 46 -43 54 -43 8 0 34 19 57 42 68 69 80 76 188 112 117
38 256 54 323 35 22 -6 60 -14 85 -19 41 -7 151 -29 175 -35 10 -2 39 -13 110
-41 58 -24 178 -77 275 -122 47 -22 123 -54 170 -72 131 -50 199 -88 259 -145
31 -29 74 -63 96 -75 22 -12 69 -43 104 -69 35 -25 82 -59 105 -75 23 -16 43
-32 46 -35 3 -4 52 -42 110 -85 168 -125 258 -217 292 -296 17 -39 18 -52 8
-110 -19 -107 -38 -157 -161 -401 -21 -42 -36 -79 -33 -81 12 -12 -24 -75 -70
-123 -28 -30 -71 -77 -96 -106 -25 -29 -56 -62 -69 -73 -13 -12 -40 -37 -60
-57 -20 -19 -44 -38 -53 -42 -10 -3 -18 -12 -18 -19 -1 -7 -37 -42 -81 -78
-123 -99 -138 -113 -152 -140 -19 -37 -20 -97 -2 -123 8 -12 15 -30 15 -40 0
-11 5 -17 13 -14 6 2 11 16 9 30 -1 15 5 38 13 51 9 14 14 33 11 43 -4 14 2
24 24 36 17 10 30 22 30 26 0 5 14 14 31 21 45 19 60 -1 24 -34 -34 -32 -27
-43 14 -22 16 9 41 16 56 16 26 0 33 -14 14 -25 -7 -5 -5 -13 6 -25 15 -17 15
-19 -4 -25 -31 -9 -25 -25 9 -25 24 0 28 -3 23 -17 -4 -10 -11 -21 -17 -25 -6
-4 -5 -12 3 -22 11 -13 11 -16 0 -16 -8 0 -4 -6 8 -15 l21 -15 -21 -42 c-12
-24 -25 -44 -29 -46 -5 -2 -3 -12 3 -23 5 -11 7 -29 4 -39 -4 -12 -2 -20 4
-20 17 0 13 -56 -4 -70 -12 -10 -21 -10 -41 -1 -36 16 -38 14 -14 -18 15 -22
19 -38 14 -58 -11 -48 -28 -83 -42 -83 -7 0 -21 -5 -32 -10 -11 -6 -29 -14
-40 -20 -11 -5 -30 -10 -43 -10 -24 0 -81 -53 -70 -64 4 -3 -1 -6 -11 -6 -9 0
-21 -11 -26 -25 -5 -14 -14 -25 -20 -25 -5 0 -10 -12 -10 -27 0 -68 -33 -97
-94 -86 -21 4 -34 -1 -58 -25 -17 -18 -45 -34 -66 -38 -21 -4 -48 -14 -61 -23
-13 -8 -33 -17 -45 -18 -11 -2 -29 -12 -41 -22 -11 -10 -25 -17 -32 -14 -6 2
-26 -3 -44 -12 -18 -10 -43 -15 -58 -12 -15 3 -38 0 -52 -7 -16 -8 -37 -9 -65
-4 -23 5 -58 5 -81 0 -31 -7 -42 -6 -49 5 -18 28 -243 17 -349 -16 -19 -6 458
-10 1315 -10 l1345 -1 17 78 c9 42 20 102 23 132 3 30 14 87 24 125 16 60 30
144 47 285 3 19 12 57 20 83 8 26 12 52 9 57 -3 6 17 34 44 63 28 30 51 59 51
65 0 6 6 12 12 14 7 3 13 11 14 19 3 45 5 50 15 43 14 -8 3 104 -12 122 -15
18 -12 234 4 284 8 25 20 68 28 95 7 28 15 52 18 55 8 6 41 129 51 185 4 22
18 67 32 100 46 109 91 277 103 375 3 30 14 96 24 145 99 478 113 569 114 780
2 141 -1 171 -23 250 -23 88 -24 98 -24 498 -1 301 2 410 11 415 6 4 15 21 19
37 3 17 13 38 21 47 8 9 12 21 9 26 -3 5 3 12 14 15 11 3 19 9 18 14 -3 9 62
175 71 183 4 3 18 21 31 40 13 19 36 47 50 61 65 66 169 195 180 223 4 12 21
28 36 36 16 8 32 19 36 24 16 22 93 21 163 -3 121 -41 251 -23 361 51 23 15
50 28 60 28 16 0 17 2 4 11 -12 9 -11 10 7 6 14 -3 28 2 39 14 9 10 22 19 27
19 6 0 18 6 26 14 34 30 152 86 196 91 72 10 119 -3 177 -48 29 -23 57 -48 62
-57 5 -8 36 -41 69 -74 46 -45 68 -59 98 -63 35 -5 39 -3 39 16 0 12 -11 34
-25 49 -14 15 -25 32 -25 39 0 7 -5 13 -11 13 -5 0 -15 14 -21 31 -7 20 -13
27 -18 19 -5 -8 -9 -4 -13 12 -4 12 -23 41 -43 62 -20 22 -45 56 -56 77 -19
38 -48 69 -48 53 0 -5 -12 9 -27 31 -15 22 -26 44 -25 48 1 5 -7 11 -18 14
-11 3 -20 11 -20 17 0 7 -15 26 -33 42 -44 39 -160 191 -176 232 -7 17 -16 32
-20 32 -9 0 -91 116 -91 128 0 5 -6 15 -14 21 -8 7 -26 37 -41 67 -15 30 -37
65 -49 76 -11 12 -14 17 -6 13 13 -8 13 -7 0 10 -8 11 -22 28 -31 37 -8 10
-26 38 -38 63 -12 25 -26 45 -31 45 -4 0 -13 12 -18 28 -6 15 -26 44 -46 65
-19 20 -33 37 -31 37 2 0 -9 13 -23 29 -51 54 -97 112 -104 132 -4 11 -31 47
-60 80 -29 33 -53 64 -53 69 0 4 -10 20 -22 34 -13 15 -23 30 -23 34 0 4 -16
23 -35 42 -19 19 -35 38 -35 43 0 15 -80 90 -122 116 -21 12 -38 26 -38 30 0
4 -15 15 -32 24 -18 9 -53 33 -78 52 -58 45 -114 84 -159 112 -71 43 -257 138
-294 149 -20 7 -45 15 -55 20 -22 9 -28 11 -80 24 -24 6 -83 24 -130 39 -136
46 -312 96 -372 105 -14 3 -27 5 -30 6 -3 2 -8 2 -12 1 -5 0 -8 4 -8 10 0 5
-4 8 -8 5 -4 -2 -42 2 -82 9 -82 15 -264 43 -320 49 -19 3 -53 1 -74 -2 -31
-6 -41 -13 -46 -33 -5 -16 -2 -33 6 -44 21 -28 17 -82 -6 -105 -24 -24 -73
-26 -153 -5 -72 19 -146 19 -216 0 -64 -17 -154 -61 -178 -87 -20 -22 -23
-112 -5 -130 7 -7 12 -19 12 -28 0 -9 11 -26 23 -37 21 -17 26 -18 42 -7 25
18 79 18 115 -1 20 -11 31 -25 36 -49 8 -45 1 -64 -42 -108 -35 -38 -84 -52
-99 -28 -5 8 -55 11 -55 3 0 -1 11 -13 25 -27 29 -29 24 -56 -11 -56 -34 0
-33 -36 1 -44 14 -4 25 -11 25 -17 0 -6 -7 -9 -15 -5 -27 10 -18 -43 9 -55 18
-9 24 -19 24 -40 -1 -16 6 -37 15 -47 21 -23 22 -36 2 -28 -8 3 -15 0 -15 -6
0 -6 -6 -6 -16 3 -15 12 -15 10 0 -25 9 -21 16 -40 16 -43 0 -2 9 1 20 7 24
13 51 6 74 -18 12 -14 14 -25 6 -50 -5 -21 -5 -43 1 -61 8 -24 19 -30 67 -41
31 -7 61 -17 67 -22 13 -11 -42 -10 -84 2 -28 8 -38 6 -53 -7 -17 -15 -20 -15
-47 4 -15 12 -45 26 -65 32 -34 9 -40 7 -62 -14 -24 -24 -32 -41 -14 -30 5 3
7 0 4 -9 -3 -8 1 -25 10 -38 9 -12 16 -28 16 -35 0 -19 -45 -34 -114 -39 -58
-3 -87 -16 -72 -31 4 -4 11 -1 16 7 8 12 12 12 36 0 14 -8 34 -15 43 -15 28 0
2 -70 -31 -81 -11 -3 -18 -15 -18 -29 0 -36 -18 -40 -46 -10 -13 14 -40 33
-59 41 -33 13 -35 13 -35 -5 0 -38 11 -51 45 -51 l32 0 -1 -55 c0 -50 -2 -55
-23 -55 -13 0 -23 4 -23 10 0 5 -19 30 -43 55 -43 44 -68 54 -97 35 -12 -8
-12 -12 0 -35 8 -15 25 -31 37 -36 13 -5 23 -11 23 -13 0 -5 -85 -91 -110
-110 -20 -16 -43 -10 -58 14 -16 26 -5 50 23 50 13 0 25 6 28 14 7 17 -11 36
-33 36 -21 0 -40 20 -40 42 0 10 -11 24 -25 30 -16 7 -25 19 -25 35 0 16 8 27
25 33 24 9 35 30 16 30 -5 0 -12 8 -14 18 -4 14 -6 13 -12 -6 -5 -16 -14 -22
-29 -20 -29 4 -34 44 -7 53 12 3 21 13 21 22 0 16 -71 83 -99 94 -9 3 -16 18
-16 33 -1 24 2 26 23 21 14 -3 41 -17 61 -31 19 -13 41 -24 47 -24 15 0 60
-68 68 -102 5 -23 12 -28 37 -28 16 0 42 -6 57 -14 29 -15 59 -8 81 17 28 34
-13 48 -76 25 -29 -11 -35 -10 -52 9 -11 12 -25 23 -31 25 -7 2 -6 12 2 31 12
25 16 27 53 21 22 -3 44 -10 50 -15 13 -13 58 -11 50 2 -9 13 -49 28 -103 38
-34 7 -44 5 -53 -8 -7 -12 -8 -3 -4 32 6 45 5 47 -19 47 -14 0 -26 -4 -26 -10
0 -5 -10 -10 -22 -10 -20 0 -20 1 -5 18 36 39 15 82 -40 82 -25 0 -31 4 -27
15 4 8 1 15 -5 15 -6 0 -8 7 -5 15 4 10 0 15 -13 15 -23 0 -43 18 -43 40 -1
18 -61 50 -95 50 -27 0 -32 18 -15 51 9 16 7 19 -8 19 -11 0 -34 14 -51 31
-18 17 -39 28 -46 25 -21 -8 -31 35 -11 49 20 15 21 34 1 41 -15 6 -21 44 -7
44 4 1 45 3 91 5 46 2 85 6 87 8 2 2 -2 12 -10 22 -10 14 -25 18 -59 18 -33
-1 -51 5 -63 18 -19 21 -13 49 11 49 8 0 15 5 15 12 0 19 69 76 88 73 9 -1 11
0 5 2 -7 3 -13 20 -13 39 0 30 7 39 32 36 3 -1 9 6 12 14 4 12 2 15 -9 10 -16
-6 -17 -1 -6 29 5 11 13 21 20 21 6 1 18 2 27 3 14 1 14 4 4 16 -9 11 -10 19
-2 27 18 18 32 0 21 -29 -5 -14 -8 -27 -7 -28 2 -1 29 -6 61 -9 49 -6 58 -5
64 10 3 9 1 25 -5 35 -8 12 -9 26 -2 43 9 24 38 34 143 45 4 1 2 9 -4 19 -8
13 -21 16 -50 14 -31 -3 -39 -1 -39 13 0 13 6 15 28 10 18 -4 33 -1 40 7 15
19 2 70 -20 76 -12 3 -15 8 -9 16 17 20 16 24 -3 45 -11 12 -16 21 -11 21 4 0
2 7 -5 15 -7 8 -16 12 -21 9 -5 -3 -17 0 -26 6 -14 8 -9 10 27 8 44 -3 45 -2
48 28 2 19 -3 36 -12 44 -38 31 -12 75 73 121 l44 24 -6 94 c-4 62 -10 97 -19
102 -9 6 -10 9 -1 9 7 0 -5 18 -26 39 -40 41 -113 71 -175 71 -36 1 -48 16
-123 154 -26 49 -64 106 -83 126 -241 257 -312 315 -369 304 -17 -4 -31 -12
-31 -20 0 -20 -17 -26 -40 -14 -16 8 -20 8 -18 -2 2 -8 -8 -14 -24 -16 -16 -2
-28 2 -28 8 0 7 -7 5 -16 -4 -8 -9 -20 -16 -25 -16 -5 0 -9 -7 -9 -15 0 -8 -4
-15 -8 -15 -5 0 -7 -13 -4 -30 3 -18 0 -30 -7 -30 -6 0 -11 5 -11 11 0 5 -4 8
-9 5 -5 -4 -12 0 -15 6 -3 9 -9 7 -21 -7 -12 -16 -28 -20 -70 -20 -30 0 -55 4
-55 9 0 5 -3 7 -6 4 -3 -4 -1 -23 5 -43 8 -30 7 -40 -5 -53 -20 -19 -107 -20
-151 -2 -28 12 -34 12 -51 -3 -23 -21 -48 -22 -56 -2 -8 21 -21 19 -53 -10
-15 -14 -34 -29 -40 -35 -7 -6 -13 -21 -12 -33 0 -21 1 -21 9 -2 9 20 9 20 9
0 1 -12 6 -26 13 -33 8 -8 9 -15 2 -22 -15 -15 -44 -1 -44 21 0 10 -4 19 -10
19 -5 0 -10 7 -10 15 0 8 -4 15 -10 15 -5 0 -10 16 -10 35 0 38 -15 45 -50 23
-29 -19 -48 3 -31 36 7 13 10 33 6 45 -5 18 -12 21 -38 16 -26 -5 -38 0 -64
25 -18 16 -39 30 -48 30 -9 0 -19 9 -22 19 -3 11 -13 21 -24 24 -15 4 -19 0
-19 -18 0 -26 -21 -46 -28 -27 -9 27 -34 42 -59 36 -17 -5 -24 -3 -19 4 3 6 2
14 -4 17 -8 5 -8 11 0 20 16 19 4 35 -26 35 -23 0 -34 -15 -15 -22 5 -1 11
-12 13 -23 5 -30 -28 -30 -53 -1 -13 14 -32 26 -43 27 -12 1 -3 5 19 10 41 10
63 24 52 35 -10 10 -77 12 -83 2z m-29 -73 c0 -14 -8 -21 -27 -23 -22 -3 -28
1 -28 17 0 10 6 22 13 24 23 10 42 2 42 -18z m-15 -57 c0 -16 -3 -19 -11 -11
-6 6 -8 16 -5 22 11 17 16 13 16 -11z m1433 -38 c-3 -11 -9 -20 -14 -20 -11 0
-11 3 -3 24 9 23 23 20 17 -4z m-535 -145 c7 -3 10 -9 7 -15 -3 -5 -1 -10 4
-10 6 0 11 -9 11 -20 0 -11 7 -23 15 -26 21 -8 19 -21 -5 -29 -11 -3 -20 -15
-20 -26 0 -12 -7 -19 -20 -19 -11 0 -29 -6 -40 -12 -17 -11 -22 -10 -30 2 -16
25 -12 36 25 64 37 28 43 42 23 44 -88 12 -104 22 -78 48 10 10 78 9 108 -1z
m82 -20 c0 -8 -6 -15 -14 -15 -17 0 -28 14 -19 24 12 12 33 6 33 -9z m-433
-171 c-3 -3 -12 -4 -19 -1 -8 3 -5 6 6 6 11 1 17 -2 13 -5z m1107 -9 c3 -8 3
-21 0 -28 -9 -25 23 -40 67 -33 41 7 41 6 35 -20 -4 -14 -12 -31 -19 -38 -16
-15 -47 -19 -47 -7 0 5 -12 3 -27 -5 -16 -7 -36 -14 -45 -14 -28 0 -48 -11
-48 -27 0 -8 -4 -12 -10 -8 -13 8 -1 35 16 35 18 0 17 40 -1 64 -20 26 -19 29
13 64 29 34 57 41 66 17z m-1923 -44 c20 -12 26 -21 17 -24 -9 -4 -7 -6 5 -6
9 -1 17 -6 17 -11 0 -6 10 -8 23 -5 18 5 26 1 35 -19 6 -14 8 -26 3 -26 -5 0
-13 -13 -19 -28 -9 -28 -12 -29 -72 -27 -48 1 -66 6 -76 20 -13 17 -19 14 -15
-7 0 -5 -5 -8 -13 -8 -15 0 -32 53 -22 69 3 5 15 7 27 4 14 -4 20 -1 18 8 -4
27 14 79 27 79 7 0 27 -9 45 -19z m1235 -85 c-6 -33 -30 -54 -41 -36 -5 8 37
80 44 74 2 -2 0 -19 -3 -38z m-396 -7 c0 -11 -4 -17 -10 -14 -5 3 -10 13 -10
21 0 8 5 14 10 14 6 0 10 -9 10 -21z m-24 -116 c-4 -26 -36 -29 -36 -4 0 14 6
21 19 21 13 0 18 -6 17 -17z m444 -2 c0 -5 -9 -11 -20 -14 -13 -3 -20 0 -20 9
0 8 9 14 20 14 11 0 20 -4 20 -9z m740 -8 c-1 -19 -18 -33 -33 -27 -26 10 -20
34 8 34 14 0 25 -3 25 -7z m-656 -29 c-4 -14 -19 -39 -34 -56 -33 -35 -55 -33
-71 9 -8 20 -12 24 -19 14 -10 -17 -40 -7 -40 14 0 12 13 15 60 15 33 0 60 4
60 9 0 8 17 16 43 20 4 0 4 -11 1 -25z m-512 -77 c7 -12 -8 -47 -20 -47 -5 0
-13 5 -19 11 -7 7 -25 13 -40 14 -48 3 -53 5 -53 14 0 28 115 35 132 8z m-171
-39 c21 -17 39 -37 39 -44 0 -29 -62 -24 -87 7 -13 17 -14 69 -1 69 5 0 27
-14 49 -32z m584 12 c3 -5 -1 -10 -10 -10 -9 0 -13 5 -10 10 3 6 8 10 10 10 2
0 7 -4 10 -10z m233 -92 c-3 -59 -20 -71 -67 -46 -66 34 -67 59 -3 80 74 24
73 24 70 -34z m-945 -83 c-3 -9 -8 -14 -10 -11 -3 3 -2 9 2 15 9 16 15 13 8
-4z m1047 5 c0 -5 -4 -10 -10 -10 -5 0 -10 5 -10 10 0 6 5 10 10 10 6 0 10 -4
10 -10z m-1192 -37 c2 -16 -2 -23 -12 -23 -11 0 -16 -9 -16 -28 0 -34 16 -52
47 -52 12 0 34 -5 48 -12 20 -9 25 -17 21 -34 -4 -16 1 -28 20 -43 14 -11 23
-25 19 -31 -9 -15 -42 -12 -48 4 -4 9 -14 12 -26 9 -15 -4 -21 -1 -21 12 0 9
9 19 20 22 30 8 24 18 -10 19 -26 1 -95 39 -125 69 -5 6 -11 25 -13 43 -3 25
1 32 15 33 10 1 5 5 -12 9 l-30 8 32 1 c17 0 35 6 38 12 12 18 50 6 53 -18z
m1460 -4 c7 -11 19 -18 27 -15 7 2 16 -2 19 -10 3 -9 1 -12 -4 -9 -6 4 -9 -4
-7 -17 2 -19 -3 -24 -28 -26 -21 -2 -35 -12 -48 -34 -14 -24 -22 -29 -43 -25
-20 3 -28 -1 -36 -19 -6 -13 -16 -24 -21 -24 -5 0 -20 -11 -33 -25 -13 -14
-30 -25 -38 -25 -8 0 -18 -4 -21 -10 -3 -5 -19 -10 -36 -10 -22 0 -29 5 -29
20 0 11 -4 20 -10 20 -15 0 -12 77 3 83 7 3 26 2 42 0 27 -6 28 -5 22 25 -4
21 -2 32 8 36 8 3 15 15 15 26 0 14 7 20 24 20 27 0 40 -22 23 -39 -8 -8 -7
-11 4 -11 19 1 43 20 58 48 8 15 21 22 41 22 16 0 32 5 35 10 9 15 19 12 33
-11z m-1589 -23 c10 -11 7 -17 -10 -30 -29 -20 -54 -4 -38 25 12 22 32 25 48
5z m-739 -111 c14 -16 7 -30 -22 -46 -11 -6 -18 -7 -15 -2 3 5 2 15 -3 23 -5
9 -5 19 2 27 14 17 23 16 38 -2z m2681 -93 c34 -28 19 -54 -27 -50 -40 3 -61
25 -51 52 8 21 49 20 78 -2z m-1023 -40 c2 -7 -6 -12 -20 -11 -12 0 -17 3 -10
6 6 2 9 9 6 15 -4 6 -1 9 6 6 8 -2 16 -10 18 -16z m-1733 -12 c3 -5 -1 -10 -9
-10 -9 0 -16 5 -16 10 0 6 4 10 9 10 6 0 13 -4 16 -10z m65 -6 c0 -14 -3 -14
-15 -4 -8 7 -15 14 -15 16 0 2 7 4 15 4 8 0 15 -7 15 -16z m-20 -61 c0 -5 -9
-19 -20 -33 -21 -27 -26 -50 -10 -50 6 0 10 -6 10 -14 0 -17 -31 -26 -92 -26
-55 0 -66 -12 -44 -45 16 -25 16 -25 -19 -25 -20 0 -45 5 -56 10 -11 6 -19 7
-19 2 0 -6 9 -12 20 -15 13 -3 20 -14 20 -30 0 -20 -5 -25 -20 -24 -11 1 -20
5 -20 10 0 4 -5 5 -12 1 -8 -5 -9 2 -5 26 4 18 3 38 -3 45 -7 9 -6 16 5 25 8
7 15 9 15 4 0 -4 6 1 14 11 8 11 35 24 61 30 49 10 60 20 69 67 5 22 12 27 44
31 20 2 43 4 50 5 6 1 12 -1 12 -5z m-273 -9 c-3 -3 -12 -4 -19 -1 -8 3 -5 6
6 6 11 1 17 -2 13 -5z m-61 -79 c13 -13 12 -15 -12 -21 -24 -6 -43 6 -44 29 0
13 41 7 56 -8z m2849 -15 c8 -13 -5 -13 -25 0 -13 8 -13 10 2 10 9 0 20 -4 23
-10z m-2455 -45 c6 -3 10 -1 10 6 0 7 2 10 5 7 3 -3 -1 -18 -10 -34 -8 -16
-15 -23 -15 -15 0 8 -7 11 -20 8 -16 -4 -19 0 -18 18 2 22 21 26 48 10z m230
-21 c0 -8 -5 -12 -10 -9 -6 4 -8 11 -5 16 9 14 15 11 15 -7z m-660 -8 c0 -16
-37 -28 -46 -15 -4 7 19 22 44 28 1 1 2 -5 2 -13z m288 2 c7 -7 12 -22 12 -34
0 -17 8 -23 36 -29 24 -4 39 -2 44 5 11 18 86 25 95 9 5 -8 5 -11 0 -7 -4 4
-21 -6 -39 -22 -17 -17 -39 -30 -48 -30 -10 0 -18 -7 -18 -15 0 -8 -4 -15 -10
-15 -10 0 -14 14 -10 39 1 10 -6 12 -24 7 -16 -4 -28 -1 -33 8 -4 8 -19 16
-33 18 -21 2 -24 7 -21 33 4 41 26 56 49 33z m-242 -70 c-18 -10 -59 -1 -52
11 3 4 19 6 37 3 26 -4 29 -6 15 -14z m-490 -33 c27 -17 39 -76 23 -107 -19
-35 -40 -47 -86 -48 -34 0 -46 5 -67 31 -30 35 -33 74 -10 107 30 43 89 50
140 17z m639 14 c11 -17 -1 -21 -15 -4 -8 9 -8 15 -2 15 6 0 14 -5 17 -11z
m-48 -60 c37 -14 53 -34 53 -69 0 -17 -3 -30 -7 -28 -36 17 -73 45 -73 56 0 6
-4 12 -10 12 -12 0 -14 63 -2 74 4 4 8 -2 10 -14 2 -11 15 -25 29 -31z m-283
16 c35 -15 37 -17 33 -58 -2 -26 -8 -41 -15 -39 -7 1 -12 -4 -12 -12 0 -7 -7
-19 -15 -26 -8 -7 -15 -21 -15 -32 0 -10 -6 -21 -13 -24 -8 -3 -12 -16 -9 -34
6 -44 -16 -100 -64 -157 -24 -28 -44 -61 -44 -72 0 -12 -9 -30 -19 -40 -10
-10 -22 -30 -26 -43 -4 -12 -12 -29 -18 -36 -5 -7 -7 -15 -3 -19 3 -3 -3 -13
-14 -20 -11 -8 -18 -18 -15 -22 7 -12 -46 -64 -89 -88 -18 -10 -32 -6 -75 21
-8 5 -41 8 -73 7 -36 -2 -58 2 -58 8 0 6 -11 11 -25 11 -25 0 -37 20 -12 20 6
0 4 5 -5 11 -10 5 -18 14 -18 19 0 6 8 10 18 10 14 0 15 -2 2 -10 -12 -8 -11
-10 7 -10 18 0 21 4 17 27 -3 15 -6 28 -7 29 -1 1 -32 0 -69 -3 -44 -4 -68
-10 -68 -18 0 -7 -11 -24 -25 -39 -14 -15 -25 -32 -25 -37 0 -6 -4 -8 -8 -5
-12 7 -59 7 -172 1 -108 -6 -152 3 -156 29 -6 42 51 66 156 66 66 1 100 15 92
38 -2 7 0 11 5 10 4 -2 18 6 29 17 87 80 103 95 108 95 15 0 59 48 71 78 14
31 35 44 35 20 0 -6 6 -4 13 7 10 13 16 15 21 6 13 -20 27 -1 15 21 -7 13 -8
23 -1 27 5 3 12 16 16 27 4 12 17 25 29 29 12 4 29 9 37 12 8 3 42 7 76 8 80
4 104 11 137 47 15 16 27 23 27 16 0 -7 10 -1 23 13 12 14 31 29 42 33 11 3
43 26 70 51 28 24 51 45 51 45 1 0 18 -7 38 -15z m431 5 c3 -5 -3 -10 -14 -10
-11 0 -23 -5 -27 -11 -4 -8 -9 -7 -15 2 -4 7 -5 17 -3 21 7 11 52 10 59 -2z
m473 -3 c17 -13 15 -62 -2 -77 -24 -19 -61 -8 -64 20 -2 14 -8 31 -14 37 -18
22 54 40 80 20z m-163 -48 c0 -25 -9 -43 -31 -65 -47 -48 -69 -57 -88 -38 -9
8 -16 23 -16 32 0 17 56 62 76 62 6 0 17 11 24 25 18 34 35 26 35 -16z m645
11 c0 -5 -4 -10 -10 -10 -5 0 -10 5 -10 10 0 6 5 10 10 10 6 0 10 -4 10 -10z
m-892 -23 c3 -12 -4 -17 -22 -17 -32 0 -42 16 -19 29 23 13 37 9 41 -12z m296
8 c-4 -8 -8 -15 -10 -15 -2 0 -4 7 -4 15 0 8 4 15 10 15 5 0 7 -7 4 -15z m854
-18 c4 -21 -27 -35 -38 -17 -12 19 0 42 19 38 9 -2 17 -11 19 -21z m855 -8
c42 -1 77 -6 77 -10 0 -5 -4 -9 -10 -9 -18 0 -11 -49 9 -60 24 -13 61 -13 61
-1 0 12 40 19 60 10 8 -4 28 -11 44 -15 53 -16 43 -34 -18 -32 -45 1 -59 -3
-80 -23 -14 -13 -26 -29 -26 -35 0 -13 -38 -23 -58 -16 -7 2 -12 22 -12 45 0
63 -10 72 -74 70 -50 -2 -58 0 -72 22 -9 14 -22 25 -30 25 -7 0 -16 5 -19 10
-12 19 7 32 39 26 17 -3 66 -6 109 -7z m-715 -26 c4 -27 -25 -44 -55 -32 -26
10 -27 13 -12 40 15 28 63 22 67 -8z m-1384 1 c8 -22 9 -21 -15 -27 -15 -4
-19 -2 -15 10 3 8 6 19 6 24 0 15 17 10 24 -7z m3746 -6 c8 0 41 -4 72 -10 42
-8 59 -16 63 -29 4 -11 13 -19 21 -19 15 0 19 -21 7 -34 -24 -23 18 -86 57
-86 27 0 82 -28 97 -50 7 -10 24 -21 38 -24 38 -10 44 -50 12 -80 -14 -13 -31
-26 -38 -28 -17 -6 -1 -68 17 -68 11 0 12 -3 4 -12 -6 -7 -16 -21 -23 -31 -10
-14 -18 -16 -47 -7 -19 5 -53 10 -76 10 -25 0 -47 6 -54 15 -7 9 -19 14 -27
11 -7 -3 -13 2 -14 12 0 10 -3 12 -6 5 -3 -10 -9 -10 -24 0 -10 6 -19 16 -19
20 0 5 -11 18 -25 28 -25 21 -113 131 -122 155 -3 8 -9 12 -13 9 -8 -5 -46
122 -39 129 5 5 40 9 59 6 8 -1 4 -5 -10 -9 -22 -7 -18 -9 28 -19 30 -7 58
-10 62 -7 18 11 5 44 -19 50 -20 5 -22 8 -10 16 10 6 7 9 -13 9 -17 0 -27 5
-25 12 1 7 -4 13 -10 14 -27 3 -28 5 -13 14 8 6 29 7 45 3 17 -3 37 -6 45 -5z
m-2713 -28 c9 -13 9 -21 2 -26 -12 -7 -51 25 -43 37 9 15 29 10 41 -11z m-627
-9 c0 -5 -7 -11 -15 -15 -15 -5 -20 5 -8 17 9 10 23 9 23 -2z m-450 -33 c0 -4
-9 -8 -19 -8 -41 0 -49 -10 -44 -49 4 -29 1 -39 -11 -44 -8 -3 -17 -3 -20 1
-4 6 -10 110 -7 123 2 9 101 -14 101 -23z m266 -18 c15 0 20 -50 7 -64 -5 -4
-8 -11 -9 -14 -5 -33 -31 -75 -50 -83 -29 -10 -42 -38 -24 -49 21 -13 4 -57
-25 -64 -36 -9 -46 0 -35 29 7 19 6 25 -5 25 -7 0 -16 -4 -19 -9 -3 -4 -27 -3
-54 4 -27 7 -60 11 -75 8 -15 -3 -27 -1 -27 4 0 14 57 53 78 53 11 0 25 7 32
15 7 8 24 15 39 15 20 0 23 2 11 10 -8 5 -24 7 -35 5 -11 -2 -43 -6 -70 -9
-46 -6 -51 -4 -52 14 -1 11 2 20 7 20 4 0 10 10 14 23 4 16 18 28 46 37 22 7
40 16 40 19 1 18 29 41 44 35 22 -8 20 -34 -2 -34 -11 0 -27 -9 -37 -20 -19
-21 -14 -50 9 -50 8 0 20 -8 26 -17 10 -17 11 -17 23 1 7 11 19 26 28 34 9 8
28 25 43 38 15 13 23 29 20 38 -3 9 1 16 13 18 11 2 19 -3 21 -14 2 -10 10
-18 18 -18z m-402 15 c4 -10 -1 -15 -15 -15 -11 0 -22 -7 -25 -15 -8 -19 -24
-9 -24 15 0 17 14 26 46 29 7 0 14 -6 18 -14z m3710 -14 c10 -15 -21 -20 -40
-7 -23 17 -10 40 16 26 10 -6 21 -14 24 -19z m-2066 -1 c1 -9 -11 -31 -28 -50
l-31 -35 30 -13 c28 -11 31 -16 31 -58 0 -30 -7 -56 -20 -74 -16 -23 -18 -33
-10 -55 14 -38 13 -45 -10 -45 -15 0 -20 7 -20 28 0 15 -6 34 -12 40 -7 7 -15
43 -18 80 -5 63 -6 67 -27 64 -13 -2 -23 2 -23 7 0 6 4 11 9 11 5 0 16 17 25
38 8 20 21 44 28 53 25 31 70 36 76 9z m-993 -40 c0 -18 -6 -26 -21 -28 -26
-4 -39 23 -21 43 18 22 42 13 42 -15z m763 3 c-4 -22 -38 -30 -38 -10 0 14 13
24 33 26 5 1 7 -7 5 -16z m-878 -12 c0 -11 -5 -23 -11 -27 -15 -9 -33 12 -26
30 9 23 37 20 37 -3z m4048 -10 c12 -10 22 -25 22 -34 0 -9 5 -19 10 -22 6 -3
10 -21 10 -38 0 -28 -4 -33 -27 -35 -16 -1 -32 -8 -38 -15 -5 -7 -17 -11 -27
-9 -9 2 -19 -5 -22 -15 -4 -10 -18 -31 -31 -46 -30 -34 -50 -30 -88 18 -22 27
-27 44 -25 73 l3 37 57 3 c47 2 60 7 69 24 7 12 20 31 30 41 10 11 16 24 13
29 -10 16 23 8 44 -11z m-3083 -21 c3 -6 0 -10 -9 -10 -8 0 -22 -3 -30 -6 -15
-6 -17 6 -7 44 2 5 40 -18 46 -28z m-185 10 c0 -5 -9 -10 -20 -10 -11 0 -20 5
-20 10 0 6 9 10 20 10 11 0 20 -4 20 -10z m1192 -2 c0 -7 2 -18 2 -24 3 -25
30 -44 62 -44 29 0 34 -4 34 -23 0 -22 -4 -23 -66 -23 l-65 0 3 33 c1 19 -2
37 -8 41 -16 10 1 52 21 52 8 0 16 -6 17 -12z m-3305 -24 c-3 -3 -12 -4 -19
-1 -8 3 -5 6 6 6 11 1 17 -2 13 -5z m1544 -10 c15 -9 -3 -58 -30 -81 -22 -20
-33 -22 -76 -17 -27 4 -54 10 -58 14 -11 10 18 40 62 66 17 10 31 21 31 25 0
7 57 2 71 -7z m-221 -48 c-8 -7 -27 -16 -42 -20 -41 -9 -37 21 5 39 37 16 60
4 37 -19z m536 5 c0 -16 -3 -17 -14 -9 -12 10 -7 19 13 28 1 0 1 -9 1 -19z
m1204 4 c16 -19 10 -26 -17 -19 -13 4 -20 11 -16 20 7 18 17 18 33 -1z m-20
-85 c0 -27 -27 -37 -47 -17 -20 19 -9 37 23 37 17 0 24 -5 24 -20z m540 -20
c13 -11 36 -20 51 -20 15 0 34 -7 43 -15 8 -8 17 -15 21 -15 10 0 35 -27 35
-38 0 -5 -9 -17 -20 -27 -11 -10 -20 -25 -20 -34 -1 -9 -7 -1 -15 17 -11 24
-20 32 -40 32 -27 0 -32 9 -13 28 9 9 9 15 0 24 -9 9 -25 9 -69 0 -48 -10 -60
-10 -72 2 -12 13 -12 18 3 40 20 32 63 34 96 6z m2390 -11 c30 -5 87 -13 125
-19 91 -12 146 -29 168 -52 10 -10 22 -18 27 -18 5 0 13 -12 16 -26 9 -34 -23
-92 -61 -110 -16 -8 -61 -36 -99 -63 -69 -48 -70 -48 -142 -47 -66 2 -75 5
-94 29 -12 15 -27 27 -33 28 -7 0 -33 25 -59 54 -72 83 -80 180 -15 209 64 29
79 30 167 15z m-4966 -39 c7 -17 15 -28 18 -24 9 9 37 -37 44 -73 4 -22 2 -32
-10 -36 -22 -8 -61 7 -62 24 0 8 -2 31 -2 52 -2 25 -7 37 -17 37 -9 0 -15 9
-15 25 0 35 28 32 44 -5z m857 -16 c10 -13 10 -17 -2 -25 -18 -12 -26 -11 -34
1 -8 13 1 40 13 40 5 0 15 -7 23 -16z m-1043 -35 c-31 -20 -41 4 -10 27 14 11
18 10 20 -3 2 -9 -2 -19 -10 -24z m126 16 c-4 -8 -12 -15 -20 -15 -8 0 -14 7
-14 15 0 8 9 15 20 15 13 0 18 -5 14 -15z m1964 -39 c5 -41 -14 -56 -29 -23
-13 29 -5 61 14 55 6 -3 13 -17 15 -32z m-2268 -21 c0 -17 -2 -18 -25 -9 -13
5 -14 8 -3 15 19 13 28 11 28 -6z m302 -56 c-2 -13 -1 -21 3 -17 8 8 78 -11
87 -25 10 -16 -2 -37 -23 -37 -12 0 -19 7 -19 20 0 11 -4 20 -9 20 -22 0 -70
-23 -75 -36 -3 -9 -20 -14 -47 -14 -35 0 -39 -2 -30 -14 9 -11 9 -16 0 -22
-14 -8 -39 22 -39 48 0 15 44 44 58 38 9 -3 32 32 32 48 0 24 17 32 45 22 14
-5 19 -15 17 -31z m1432 19 c13 -22 -5 -44 -28 -35 -22 9 -22 60 0 55 9 -2 22
-11 28 -20z m2085 6 c18 -9 37 -25 44 -35 6 -10 17 -19 24 -19 7 0 13 -7 13
-15 0 -8 9 -15 20 -15 34 0 71 -30 65 -51 -3 -10 -1 -27 5 -38 9 -18 7 -21
-14 -27 -34 -8 -49 3 -44 36 4 24 -1 31 -29 44 -19 9 -47 16 -64 16 -32 0 -59
19 -59 42 0 8 -7 23 -15 34 -33 43 -6 58 54 28z m-1671 -6 c17 -17 15 -63 -3
-78 -9 -7 -16 -11 -18 -9 -21 37 -27 52 -27 67 0 32 25 43 48 20z m-1938 -5
c0 -5 -5 -15 -10 -23 -7 -12 -12 -12 -22 -2 -10 10 -10 15 2 22 18 12 30 13
30 3z m404 -18 c-6 -16 -34 -21 -34 -7 0 13 11 22 26 22 8 0 11 -6 8 -15z
m1937 -12 c0 -5 2 -18 3 -31 2 -16 -4 -24 -20 -28 -34 -9 -46 3 -33 29 17 31
48 49 50 30z m1379 -8 c0 -8 -4 -15 -10 -15 -5 0 -10 7 -10 15 0 8 5 15 10 15
6 0 10 -7 10 -15z m-3244 -9 c10 -8 17 -16 14 -18 -3 -2 -14 -8 -25 -14 -11
-6 -22 -20 -24 -30 -5 -25 -22 -35 -38 -22 -18 14 -16 49 3 76 17 25 42 28 70
8z m-646 -6 c0 -5 -7 -10 -16 -10 -8 0 -12 5 -9 10 3 6 10 10 16 10 5 0 9 -4
9 -10z m-1960 -13 c55 -19 57 -22 63 -93 4 -60 -2 -93 -23 -114 -3 -3 -6 -14
-8 -25 -2 -11 -11 -26 -19 -32 -9 -7 -29 -24 -44 -37 -24 -22 -34 -24 -89 -20
-35 2 -81 9 -103 15 -45 12 -91 -1 -101 -29 -6 -16 -27 -54 -75 -134 -13 -21
-27 -38 -32 -38 -5 0 -9 -7 -9 -15 0 -8 -7 -15 -15 -15 -8 0 -15 -5 -15 -11 0
-21 -43 -49 -74 -49 -25 0 -43 12 -89 60 -54 57 -57 63 -57 111 0 37 9 70 33
120 38 82 65 99 159 100 34 1 86 4 115 7 55 7 66 18 124 115 13 20 29 37 36
37 7 0 22 9 33 20 11 11 20 17 20 14 0 -3 10 2 22 10 27 19 100 20 148 3z
m5989 -26 c15 -11 46 -27 69 -37 45 -17 51 -40 11 -38 -55 3 -94 13 -92 23 2
6 -13 17 -32 25 -19 8 -35 19 -35 24 0 28 42 29 79 3z m-3969 -10 c0 -11 -26
-22 -34 -14 -12 12 -5 23 14 23 11 0 20 -4 20 -9z m-240 -21 c0 -5 -4 -10 -10
-10 -5 0 -10 5 -10 10 0 6 5 10 10 10 6 0 10 -4 10 -10z m130 -15 c0 -16 -35
-21 -44 -6 -8 12 4 21 26 21 10 0 18 -7 18 -15z m320 -46 c0 -5 -9 -9 -20 -9
-19 0 -26 11 -14 23 8 8 34 -3 34 -14z m2624 -10 c68 -40 79 -95 16 -82 -22 4
-29 1 -34 -15 -9 -27 -44 -49 -91 -56 -22 -4 -43 -12 -47 -19 -17 -26 -8 -97
17 -136 l24 -39 -34 -20 c-22 -14 -35 -30 -38 -49 -4 -25 -5 -25 -6 7 -1 41
-10 115 -17 148 -3 13 -19 29 -42 40 -31 15 -37 22 -35 46 3 36 39 76 70 76
25 0 63 32 63 53 0 8 4 7 10 -3 6 -9 10 -10 10 -3 0 6 14 14 30 18 17 4 30 11
30 17 0 8 27 36 37 38 1 0 17 -9 37 -21z m106 -3 c0 -3 -4 -8 -10 -11 -5 -3
-10 -1 -10 4 0 6 5 11 10 11 6 0 10 -2 10 -4z m721 -22 c6 -8 17 -14 23 -14 7
0 31 -18 55 -40 23 -22 41 -40 39 -40 -3 0 -26 11 -52 24 -51 26 -76 25 -76
-2 0 -12 -3 -13 -12 -4 -8 8 -8 15 0 25 9 10 7 17 -8 30 -26 22 -26 47 0 40
10 -3 25 -11 31 -19z m-3901 2 c0 -3 -4 -8 -10 -11 -5 -3 -10 -1 -10 4 0 6 5
11 10 11 6 0 10 -2 10 -4z m340 -21 c0 -8 -4 -15 -10 -15 -5 0 -10 7 -10 15 0
8 5 15 10 15 6 0 10 -7 10 -15z m1618 -2 c17 -33 2 -45 -24 -21 -13 13 -24 26
-24 31 0 15 40 6 48 -10z m2200 5 c-7 -19 -35 -21 -41 -3 -5 11 0 15 19 15 16
0 24 -5 22 -12z m-4208 -22 c0 -8 -18 -24 -41 -35 l-40 -21 15 22 c13 18 50
46 64 48 1 0 2 -6 2 -14z m780 4 c0 -5 -4 -10 -10 -10 -5 0 -10 5 -10 10 0 6
5 10 10 10 6 0 10 -4 10 -10z m-620 -15 c-7 -8 -17 -15 -22 -15 -6 0 -5 7 2
15 7 8 17 15 22 15 6 0 5 -7 -2 -15z m717 -11 c-3 -3 -12 -4 -19 -1 -8 3 -5 6
6 6 11 1 17 -2 13 -5z m1668 -14 c3 -5 -1 -20 -10 -33 -8 -13 -13 -32 -9 -41
8 -21 -5 -106 -16 -106 -5 0 -16 7 -24 16 -24 24 -20 88 9 134 25 40 39 48 50
30z m191 -56 c3 -19 0 -42 -9 -60 l-15 -28 -16 33 c-18 35 -19 101 -1 113 13
10 33 -18 41 -58z m-1332 18 c3 -5 -2 -28 -11 -53 -9 -24 -19 -64 -22 -89 -5
-40 -9 -45 -33 -48 -33 -4 -35 7 -14 66 8 22 12 42 10 45 -7 7 44 87 56 87 5
0 11 -4 14 -8z m1777 -19 c-8 -15 -10 -15 -11 -2 0 17 10 32 18 25 2 -3 -1
-13 -7 -23z m-26 8 c3 -5 1 -12 -5 -16 -5 -3 -10 1 -10 9 0 18 6 21 15 7z
m-3078 -7 c-3 -3 -12 -4 -19 -1 -8 3 -5 6 6 6 11 1 17 -2 13 -5z m3973 -4 c0
-5 -4 -10 -10 -10 -5 0 -10 5 -10 10 0 6 5 10 10 10 6 0 10 -4 10 -10z m-2904
-22 c-32 -46 -48 -90 -71 -203 -4 -16 -9 -37 -12 -45 -4 -8 -5 -18 -5 -22 1
-5 -5 -8 -14 -8 -10 0 -14 6 -10 15 3 8 1 15 -4 15 -5 0 -5 13 1 32 5 18 9 44
9 58 0 14 14 43 30 64 16 21 27 43 24 48 -6 9 45 68 60 68 5 0 1 -10 -8 -22z
m552 -47 c-2 -59 -5 -67 -20 -64 -18 5 -38 51 -38 87 0 27 18 46 42 46 16 0
18 -9 16 -69z m-1128 39 c0 -5 -4 -10 -10 -10 -5 0 -10 5 -10 10 0 6 5 10 10
10 6 0 10 -4 10 -10z m2688 -52 c4 -18 6 -72 4 -119 l-4 -86 -24 11 c-25 12
-36 30 -54 90 -8 24 -23 44 -41 55 -16 9 -29 19 -29 23 0 12 18 19 25 8 13
-21 54 -10 75 20 27 38 37 38 48 -2z m802 -14 c0 -17 -22 -14 -28 4 -2 7 3 12
12 12 9 0 16 -7 16 -16z m-147 -11 c9 -3 17 0 17 6 0 17 31 13 52 -6 23 -20
23 -31 1 -35 -14 -3 -13 -7 11 -28 81 -73 125 -122 152 -169 10 -19 28 -44 38
-55 19 -19 19 -20 0 -27 -36 -14 -44 -10 -42 23 2 22 -3 34 -17 42 -10 6 -33
26 -50 45 -43 48 -110 112 -145 139 -16 13 -39 37 -52 54 -20 29 -21 31 -2 24
10 -5 27 -11 37 -13z m-165 -37 c2 -9 -3 -16 -13 -16 -12 0 -15 -5 -10 -21 6
-19 4 -21 -24 -17 -17 2 -31 3 -31 2 0 -2 17 -18 37 -38 l37 -35 -28 -7 c-34
-8 -102 11 -110 31 -3 8 -13 15 -23 15 -14 0 -15 2 -5 9 11 6 8 13 -12 29 -14
11 -26 27 -26 36 0 17 15 22 25 7 5 -9 62 -41 73 -41 2 0 2 14 -2 30 -6 31 1
38 38 44 8 1 19 5 22 9 10 10 48 -17 52 -37z m-2850 -6 c-7 -10 -14 -18 -15
-16 -6 6 9 36 18 36 5 0 4 -9 -3 -20z m2555 -36 c16 -19 26 -38 23 -41 -3 -3
3 -22 13 -42 10 -20 21 -63 24 -96 3 -33 12 -73 21 -90 9 -16 16 -37 16 -46 0
-10 13 -48 28 -87 24 -58 27 -72 16 -87 -20 -28 -49 -15 -52 24 -2 20 -13 41
-25 52 -18 14 -20 20 -9 30 20 21 14 147 -7 135 -4 -3 -8 17 -9 42 -1 33 -7
52 -22 64 -11 9 -20 25 -20 36 0 11 -9 31 -21 45 -26 34 -38 97 -18 97 8 0 27
-16 42 -36z m363 -59 c18 -14 18 -14 -11 -15 -39 0 -75 10 -75 21 0 15 65 10
86 -6z m-436 -17 c0 -12 -3 -18 -7 -14 -11 10 -12 36 -2 36 5 0 9 -10 9 -22z
m-2039 -80 c10 -19 -5 -26 -16 -8 -15 25 -46 9 -65 -32 -10 -24 -19 -37 -19
-30 -1 7 -5 10 -11 7 -5 -3 -10 1 -10 9 0 9 21 38 48 65 44 47 47 48 56 28 4
-12 12 -30 17 -39z m-163 22 c-2 -30 -28 -44 -28 -15 0 13 19 43 28 45 1 0 1
-13 0 -30z m2573 -53 c6 -21 4 -30 -8 -34 -18 -7 -43 21 -43 50 0 31 42 18 51
-16z m-486 9 c15 6 25 -6 31 -40 2 -15 -2 -26 -10 -29 -19 -8 -32 10 -39 53
-3 19 -3 30 -1 23 3 -7 11 -10 19 -7z m125 -26 c0 -5 -5 -10 -11 -10 -5 0 -7
5 -4 10 3 6 8 10 11 10 2 0 4 -4 4 -10z m429 -34 c9 -11 6 -15 -14 -18 -24 -5
-34 9 -18 25 10 10 19 8 32 -7z m113 -19 c11 -19 -1 -27 -41 -27 -47 0 -56 8
-34 32 18 20 61 17 75 -5z m315 -86 c-5 -2 -12 1 -16 6 -3 5 -15 13 -26 17
-19 7 -19 8 -2 17 9 6 17 18 18 27 0 9 8 -1 18 -23 11 -23 14 -42 8 -44z
m-6872 18 c6 -4 20 -7 31 -7 26 2 132 -49 159 -76 29 -30 45 -71 45 -115 0
-52 -11 -101 -22 -101 -5 0 -21 -9 -36 -19 -15 -11 -51 -25 -80 -31 -55 -13
-142 -6 -142 11 0 5 -13 9 -28 9 -20 0 -43 15 -81 50 -47 44 -53 55 -58 99 -4
41 -1 54 16 72 11 12 18 26 15 31 -3 4 -1 8 4 8 5 0 21 11 37 24 19 17 23 25
14 28 -18 7 47 25 86 25 17 0 35 -3 40 -8z m5875 -19 c0 -5 -4 -10 -9 -10 -6
0 -13 5 -16 10 -3 6 1 10 9 10 9 0 16 -4 16 -10z m-174 -27 c-10 -10 -19 5
-10 18 6 11 8 11 12 0 2 -7 1 -15 -2 -18z m-6 -23 c0 -5 -2 -10 -4 -10 -3 0
-8 5 -11 10 -3 6 -1 10 4 10 6 0 11 -4 11 -10z m672 -57 c20 -18 24 -43 6 -43
-16 0 -48 31 -48 47 0 18 20 16 42 -4z m-1374 -780 l2 -313 -785 0 -785 0 0
315 0 315 783 -2 782 -3 3 -312z m2162 -2828 c10 -12 10 -18 0 -30 -17 -20
-66 -19 -74 1 -9 23 -8 24 17 34 32 13 43 12 57 -5z m404 -21 c21 -8 21 -48 0
-68 -8 -9 -28 -16 -44 -16 -16 0 -41 -5 -55 -12 -19 -8 -31 -8 -51 1 -24 10
-25 14 -13 32 8 11 39 31 69 44 62 26 72 28 94 19z m-282 -79 c30 -8 45 -34
26 -47 -36 -22 -161 2 -150 30 4 11 65 31 82 27 8 -2 27 -7 42 -10z m-1255
-977 c-3 -8 -6 -5 -6 6 -1 11 2 17 5 13 3 -3 4 -12 1 -19z m-97 -48 c0 -5 -4
-10 -10 -10 -5 0 -10 5 -10 10 0 6 5 10 10 10 6 0 10 -4 10 -10z m-734 -258
c-22 -5 -30 3 -21 18 5 8 11 7 22 -2 15 -12 14 -13 -1 -16z"/>
<path d="M7291 7424 c0 -11 3 -14 6 -6 3 7 2 16 -1 19 -3 4 -6 -2 -5 -13z"/>
<path d="M4100 6586 c0 -9 7 -16 16 -16 17 0 14 22 -4 28 -7 2 -12 -3 -12 -12z"/>
<path d="M4360 6350 l-25 -8 27 -1 c15 -1 30 4 33 9 7 11 0 11 -35 0z"/>
<path d="M4345 6320 c3 -5 13 -10 21 -10 8 0 12 5 9 10 -3 6 -13 10 -21 10 -8
0 -12 -4 -9 -10z"/>
<path d="M5205 6630 c-3 -5 1 -10 9 -10 9 0 16 5 16 10 0 6 -4 10 -9 10 -6 0
-13 -4 -16 -10z"/>
<path d="M7320 8690 c0 -5 5 -10 10 -10 6 0 10 5 10 10 0 6 -4 10 -10 10 -5 0
-10 -4 -10 -10z"/>
<path d="M4794 7972 c3 -5 -18 -12 -46 -15 -28 -4 -58 -13 -68 -22 -9 -8 -22
-15 -28 -15 -7 0 -4 -16 8 -46 11 -25 20 -67 20 -93 0 -62 24 -85 78 -73 20 5
53 5 72 0 19 -4 40 -5 47 -3 6 2 13 -1 15 -6 2 -6 10 -7 19 -4 16 6 69 129 69
160 0 12 -35 83 -56 113 -6 8 -135 12 -130 4z"/>
<path d="M5260 7925 c-11 -13 -10 -14 4 -9 9 3 16 10 16 15 0 13 -6 11 -20 -6z"/>
<path d="M8390 7851 c0 -4 7 -16 15 -28 8 -12 12 -29 9 -37 -5 -13 36 -94 49
-96 31 -7 188 -29 205 -30 13 0 22 6 22 14 0 26 -106 122 -152 138 -16 6 -28
14 -28 19 0 5 -13 9 -30 9 -16 0 -30 4 -30 8 0 5 -13 9 -30 9 -16 0 -30 -3
-30 -6z"/>
<path d="M5145 7610 c-3 -5 1 -10 10 -10 9 0 13 5 10 10 -3 6 -8 10 -10 10 -2
0 -7 -4 -10 -10z"/>
<path d="M8019 7252 c7 -13 6 -23 -1 -30 -19 -19 -2 -24 41 -10 50 16 52 30 8
46 -48 17 -60 16 -48 -6z"/>
<path d="M7801 7101 c-8 -5 -9 -11 -3 -15 13 -8 42 3 42 15 0 11 -21 11 -39 0z"/>
<path d="M8497 7003 c-10 -10 -8 -23 4 -23 5 0 8 4 5 9 -4 5 0 12 6 14 7 3 8
6 2 6 -6 1 -14 -2 -17 -6z"/>
<path d="M7910 6980 c0 -5 5 -10 11 -10 5 0 7 5 4 10 -3 6 -8 10 -11 10 -2 0
-4 -4 -4 -10z"/>
<path d="M8015 6865 c31 -25 55 -32 55 -16 0 5 -11 12 -25 15 -14 4 -25 11
-25 16 0 6 -8 10 -17 10 -14 0 -11 -6 12 -25z"/>
<path d="M8031 6776 c-8 -10 -9 -16 -1 -21 6 -3 7 -11 4 -17 -5 -8 3 -9 26 -4
46 9 70 46 31 46 -11 0 -26 2 -34 5 -7 3 -19 -1 -26 -9z"/>
<path d="M7754 6765 c-10 -8 -14 -15 -7 -15 6 0 18 -3 27 -6 12 -4 16 0 16 15
0 25 -9 26 -36 6z"/>
<path d="M7896 6736 c7 -19 38 -22 32 -3 -3 6 -12 13 -21 15 -12 2 -15 -1 -11
-12z"/>
<path d="M8258 6684 c-4 -3 -18 -7 -30 -8 -18 -1 -22 -7 -21 -24 4 -32 -23
-39 -45 -11 -18 21 -20 21 -42 6 l-23 -16 34 -14 c47 -19 103 -27 120 -16 8 5
10 9 5 9 -5 0 -2 8 6 18 15 17 11 71 -4 56z"/>
<path d="M7750 6661 c0 -5 7 -12 16 -15 22 -9 24 -8 24 9 0 8 -9 15 -20 15
-11 0 -20 -4 -20 -9z"/>
<path d="M7901 6648 c-7 -13 -10 -20 -6 -16 4 4 14 0 22 -8 12 -11 83 -18 83
-8 0 12 -36 34 -55 34 -13 0 -25 5 -27 10 -2 6 -9 0 -17 -12z"/>
<path d="M8282 6571 c-11 -6 -10 -10 4 -15 20 -8 32 0 18 14 -5 5 -15 5 -22 1z"/>
<path d="M7880 6551 c0 -5 9 -7 20 -4 11 3 20 7 20 9 0 2 -9 4 -20 4 -11 0
-20 -4 -20 -9z"/>
<path d="M8385 6513 c11 -3 25 -10 32 -15 7 -5 17 -7 24 -3 17 11 -10 25 -46
24 -21 -1 -24 -3 -10 -6z"/>
<path d="M8136 6475 c4 -8 10 -15 15 -15 5 0 9 7 9 15 0 8 -7 15 -15 15 -9 0
-12 -6 -9 -15z"/>
<path d="M7958 6473 c7 -3 16 -2 19 1 4 3 -2 6 -13 5 -11 0 -14 -3 -6 -6z"/>
<path d="M7992 6459 c2 -6 8 -10 13 -10 5 0 11 4 13 10 2 6 -4 11 -13 11 -9 0
-15 -5 -13 -11z"/>
<path d="M8200 6431 c13 -25 33 -28 28 -4 -2 10 -11 19 -21 21 -16 3 -17 1 -7
-17z"/>
<path d="M8582 6430 c0 -14 2 -19 5 -12 2 6 2 18 0 25 -3 6 -5 1 -5 -13z"/>
<path d="M8084 6374 c-9 -33 1 -40 32 -23 14 7 21 15 15 17 -6 2 -9 7 -6 12 3
4 -4 10 -15 13 -15 4 -22 -1 -26 -19z"/>
<path d="M8236 6369 c-15 -9 -16 -13 -5 -20 10 -6 11 -9 2 -9 -8 0 -4 -10 9
-25 12 -14 28 -25 35 -25 17 0 16 30 -2 54 -8 10 -12 23 -9 27 7 12 -7 11 -30
-2z"/>
<path d="M7970 6000 c0 -5 4 -10 9 -10 6 0 13 5 16 10 3 6 -1 10 -9 10 -9 0
-16 -4 -16 -10z"/>
</g>
</svg>
